<?xml version="1.0" encoding="UTF-8"?>
<svg version="1.1" xmlns="http://www.w3.org/2000/svg" width="852" height="752">
<path d="M0 0 C1.05147217 0.00126892 2.10294434 0.00253784 3.1862793 0.00384521 C45.01378253 0.0996056 92.8889065 1.59537987 131.625 19.1875 C132.96717812 19.76755177 134.3096361 20.34695631 135.65234375 20.92578125 C151.21408852 27.78912359 171.56123248 37.78080942 182.98071289 50.72412109 C185.10439409 52.61415006 186.86210515 53.00100798 189.62109375 53.66015625 C190.64058105 53.91458496 191.66006836 54.16901367 192.71044922 54.43115234 C194.36971436 54.83648193 194.36971436 54.83648193 196.0625 55.25 C214.71130945 60.05003684 232.96521349 66.24546974 250.40551758 74.44750977 C255.93488418 77.03335236 261.52813739 79.39140646 267.19140625 81.6640625 C298.19557438 94.14212481 298.19557438 94.14212481 311.77294922 103.86474609 C313.57669914 105.15300303 315.40624527 106.38907344 317.25390625 107.61328125 C341.07511252 123.49746577 354.54289546 142.14435836 360.2734375 170.3828125 C362.06974683 184.71336915 359.66240365 197.59684788 354.578125 210.93359375 C346.02785452 233.59181052 348.05449696 250.10648134 355.45574951 272.41160583 C355.68046936 273.08917435 355.90518921 273.76674286 356.13671875 274.46484375 C356.35902161 275.1346376 356.58132446 275.80443146 356.81036377 276.49452209 C358.61419865 281.99856268 360.05067192 287.51091519 361.1875 293.1875 C361.3309082 293.90284912 361.47431641 294.61819824 361.62207031 295.35522461 C366.21720745 319.66185473 363.47201964 347.07161732 349.625 368.1875 C319.92608661 411.03402223 260.05621381 422.21695188 212.27189636 431.08421326 C209.30716868 431.63941758 206.49096746 432.23217751 203.625 433.1875 C202.29529605 435.2949961 202.29529605 435.2949961 201.171875 437.9296875 C200.72150879 438.90784424 200.27114258 439.88600098 199.80712891 440.89379883 C199.33452637 441.93947021 198.86192383 442.9851416 198.375 444.0625 C194.59769817 452.16296008 190.85430201 459.90929018 185.625 467.1875 C185.15304199 467.84524414 184.68108398 468.50298828 184.19482422 469.18066406 C181.95863344 472.29241843 179.71527857 475.39883763 177.46240234 478.49853516 C170.34476556 488.29324099 163.82150608 498.35584666 157.66796875 508.78125 C156.0971184 511.4003351 154.46942999 513.91773473 152.75 516.4375 C143.86744332 530.81442164 145.52768527 551.40684673 145.1875 567.6875 C144.91466512 580.49341142 144.35575623 593.23265582 143.3125 606 C143.25941681 606.70495605 143.20633362 607.40991211 143.15164185 608.13623047 C142.35592517 618.52493172 140.38261041 628.16450886 137.625 638.1875 C137.07795393 640.28511164 136.53106583 642.38276449 135.984375 644.48046875 C129.51820248 668.42940336 122.13941194 691.24117123 105.625 710.1875 C104.14329772 712.0604969 102.66413703 713.93550716 101.1875 715.8125 C86.2588108 733.82900355 62.50878573 747.32272375 39.01719666 749.98724365 C33.9448994 750.41185746 28.8603459 750.5171146 23.7734375 750.64453125 C22.53311768 750.67656647 21.29279785 750.70860168 20.01489258 750.74160767 C16.01006929 750.83802541 12.00524171 750.92336958 8 751 C7.32151253 751.01302784 6.64302505 751.02605568 5.94397736 751.0394783 C-20.44316429 751.52867927 -46.6492695 751.76238267 -71.375 741.1875 C-72.16438965 740.85588867 -72.9537793 740.52427734 -73.76708984 740.18261719 C-84.06586775 735.7841178 -94.14941466 730.95337198 -102.375 723.1875 C-102.375 722.5275 -102.375 721.8675 -102.375 721.1875 C-103.035 721.1875 -103.695 721.1875 -104.375 721.1875 C-105.890625 719.68359375 -105.890625 719.68359375 -107.625 717.625 C-108.24890625 716.88765625 -108.8728125 716.1503125 -109.515625 715.390625 C-110.12921875 714.66359375 -110.7428125 713.9365625 -111.375 713.1875 C-111.88546875 712.62546875 -112.3959375 712.0634375 -112.921875 711.484375 C-119.60721325 704.08018318 -124.44921367 695.78502254 -128.0390625 686.5 C-129.19056073 683.6448231 -130.43987899 680.88555182 -131.7421875 678.09765625 C-138.45033303 663.41011338 -143.23265636 647.70852426 -146.3125 631.875 C-146.59287109 630.44982056 -146.59287109 630.44982056 -146.87890625 628.99584961 C-150.42528218 609.20131568 -150.82259405 588.98423789 -151.4375 568.9375 C-152.01898878 549.8970015 -152.01898878 549.8970015 -152.8671875 530.8671875 C-152.90235977 530.17067078 -152.93753204 529.47415405 -152.97377014 528.75653076 C-154.30635684 505.3675312 -168.8787026 485.9279091 -181.76953125 467.23828125 C-187.58068788 458.7924053 -192.36561151 451.09048772 -195.375 441.1875 C-196.52355469 441.25195312 -197.67210937 441.31640625 -198.85546875 441.3828125 C-206.26674323 441.37414603 -213.46782608 439.57590776 -220.6875 438.0625 C-222.25307225 437.73966 -223.81874759 437.41731958 -225.38452148 437.09545898 C-228.54847008 436.44335675 -231.7111297 435.78541293 -234.87304688 435.12353516 C-238.90565197 434.28125104 -242.94382146 433.47123079 -246.984375 432.66796875 C-268.04163085 428.4174795 -288.63051179 422.72322869 -308.375 414.1875 C-309.69586029 413.64918713 -311.01750745 413.11280187 -312.33984375 412.578125 C-325.04313926 407.3558275 -336.11089426 400.80217537 -346.140625 391.296875 C-348.19223663 389.36003884 -350.31319325 387.59245898 -352.5 385.8125 C-367.79179159 372.37052191 -374.53646462 350.91203393 -376.375 331.1875 C-377.56228159 311.25366692 -373.05575063 291.47659864 -366.49609375 272.73046875 C-358.56089343 249.93270197 -360.44958497 230.28992883 -370.375 208.1875 C-372.63339922 202.60093351 -373.03795038 197.15249452 -373.375 191.1875 C-373.44074219 190.25808594 -373.50648438 189.32867187 -373.57421875 188.37109375 C-374.32619311 169.31243322 -365.59230543 146.63757154 -353.5 132.1875 C-342.6309929 120.84033015 -329.0536932 112.33020719 -315.55493164 104.48022461 C-314.06907629 103.59909525 -312.59975996 102.6896106 -311.14624023 101.75610352 C-304.54569623 97.57446436 -297.619116 94.64494279 -290.3744812 91.80770874 C-286.81527889 90.4135162 -283.26691361 88.99231908 -279.71875 87.5703125 C-279.00702133 87.2855455 -278.29529266 87.0007785 -277.56199646 86.7073822 C-271.07005 84.09518868 -264.6896365 81.25511197 -258.3125 78.375 C-241.14961046 70.71737368 -223.75591454 65.01683162 -205.50830078 60.53222656 C-193.51712343 57.78764333 -193.51712343 57.78764333 -183.5 51 C-175.53988306 43.30337125 -167.32416237 37.17275612 -157.4375 32.1875 C-156.4280835 31.6733252 -155.41866699 31.15915039 -154.37866211 30.62939453 C-125.41668466 16.05138649 -95.48732139 7.16970568 -63.375 3.1875 C-62.39547363 3.06439453 -61.41594727 2.94128906 -60.40673828 2.81445312 C-40.35635266 0.3771108 -20.17682935 -0.02527118 0 0 Z M235.625 153.1875 C235.64594727 153.75557373 235.66689453 154.32364746 235.68847656 154.90893555 C236.05390669 166.34944252 236.13279069 176.46482629 231.625 187.1875 C231.12742187 188.38890625 230.62984375 189.5903125 230.1171875 190.828125 C228.35656027 194.98008318 226.49664722 199.08464993 224.625 203.1875 C211.09096506 232.93042069 207.50838278 252.52662575 213.9375 285 C214.34736751 287.14226036 214.75557721 289.28483858 215.16210938 291.42773438 C216.29161578 297.35263496 217.45111156 303.27124755 218.625 309.1875 C218.78917419 310.01538025 218.95334839 310.8432605 219.12249756 311.69622803 C219.94987648 315.86136451 220.78350814 320.02518778 221.625 324.1875 C240.77063462 320.85407619 256.11385902 314.15444094 267.5625 297.9375 C276.32275793 283.26916114 271.39709702 266.95251298 267.5625 251.5 C267.29308594 250.46713867 267.02367187 249.43427734 266.74609375 248.37011719 C263.06950364 233.92571378 262.69456168 223.19555965 269.75 210 C274.36057012 200.78904886 275.27590332 192.44590079 272.5625 182.375 C266.7468108 167.835777 252.22645129 159.38646447 238.625 153.1875 C237.635 153.1875 236.645 153.1875 235.625 153.1875 Z M-277.43359375 176.1484375 C-284.82437891 183.91099254 -287.05917367 192.63178406 -286.96875 203.22265625 C-286.43286027 208.64853976 -283.9379262 213.31192459 -281.39697266 218.06201172 C-273.88907633 232.1482553 -277.08023159 244.81384236 -280.9375 259.6875 C-286.11486154 280.22198383 -286.11486154 280.22198383 -282.5625 300.6875 C-276.59232223 310.19930865 -268.54042278 318.34062642 -258.375 323.1875 C-257.62089844 323.55101562 -256.86679687 323.91453125 -256.08984375 324.2890625 C-251.00879257 326.51149223 -245.7287358 328.02162562 -240.375 329.4375 C-239.73481934 329.61297363 -239.09463867 329.78844727 -238.43505859 329.96923828 C-233.05752959 331.31395976 -227.89803696 331.36575375 -222.375 331.1875 C-222.24544922 329.38732422 -222.24544922 329.38732422 -222.11328125 327.55078125 C-220.90993367 312.67631938 -218.40643057 298.09692752 -213.1875 284.0625 C-206.14306958 263.79532722 -210.41885757 244.07178331 -219.30224609 225.21972656 C-220.92643234 221.89861697 -222.60789909 218.60702658 -224.28515625 215.3125 C-230.41740404 203.238824 -235.17715717 192.31934485 -236.90234375 178.78515625 C-237.25241029 175.2386718 -237.25241029 175.2386718 -238.375 172.1875 C-238.45473476 170.85224283 -238.48271338 169.51337917 -238.47265625 168.17578125 C-238.46943359 167.41845703 -238.46621094 166.66113281 -238.46289062 165.88085938 C-238.45032227 164.70233398 -238.45032227 164.70233398 -238.4375 163.5 C-238.43298828 162.70271484 -238.42847656 161.90542969 -238.42382812 161.08398438 C-238.4120585 159.11845743 -238.39412348 157.15296915 -238.375 155.1875 C-251.57981318 155.1875 -268.22703498 167.61713617 -277.43359375 176.1484375 Z " fill="#FB4417" transform="translate(432.375,0.8125)"/>
<path d="M0 0 C3.27777378 2.42693497 6.44559673 4.9426447 9.32763672 7.83056641 C9.32763672 8.49056641 9.32763672 9.15056641 9.32763672 9.83056641 C9.98763672 9.83056641 10.64763672 9.83056641 11.32763672 9.83056641 C11.32763672 10.49056641 11.32763672 11.15056641 11.32763672 11.83056641 C11.90771484 12.07419922 12.48779297 12.31783203 13.08544922 12.56884766 C23.28852564 18.31030007 27.30746243 31.73628249 30.32763672 42.34228516 C35.28621184 63.2493543 33.32023343 82.320098 23.01513672 101.26806641 C22.52674316 102.18749023 22.03834961 103.10691406 21.53515625 104.05419922 C19.51605488 107.84278224 17.47803763 111.61427808 15.30810547 115.31884766 C10.87681738 122.94152571 9.34570561 128.51057628 11.39013672 137.20556641 C13.2471174 143.23025033 16.07277911 148.45771533 19.32763672 153.83056641 C19.78396484 154.69939453 20.24029297 155.56822266 20.71044922 156.46337891 C25.41224832 164.5130559 32.23011328 167.37423662 40.44921875 170.98291016 C42.89143429 172.0849861 45.2253251 173.36206689 47.57763672 174.64306641 C57.3516115 179.43263877 66.02908218 180.13013798 76.66357422 179.15478516 C79.91195687 178.86734831 83.06966256 178.77509007 86.32763672 178.83056641 C88.91145525 196.59431881 86.41184895 213.30978635 83.32763672 230.83056641 C83.07143555 232.30372314 83.07143555 232.30372314 82.81005859 233.80664062 C80.31136267 248.01736127 76.92128529 261.77931439 72.70263672 275.58056641 C72.49646729 276.26094971 72.29029785 276.94133301 72.07788086 277.64233398 C71.10611385 280.74686349 70.14803602 283.09996745 68.32763672 285.83056641 C46.42747995 293.86333766 13.32581435 284.13824864 -7.11279297 274.70410156 C-16.33288217 270.26342714 -24.85550569 265.4774388 -32.67236328 258.83056641 C-34.01820523 257.88115445 -35.37194984 256.94280452 -36.73486328 256.01806641 C-38.18892578 254.93525391 -38.18892578 254.93525391 -39.67236328 253.83056641 C-39.67236328 253.17056641 -39.67236328 252.51056641 -39.67236328 251.83056641 C-40.25373047 251.56630859 -40.83509766 251.30205078 -41.43408203 251.02978516 C-45.351417 248.93096869 -48.41682327 245.82297066 -51.67236328 242.83056641 C-52.27564453 242.29302734 -52.87892578 241.75548828 -53.50048828 241.20166016 C-61.82629903 233.41965237 -66.93229217 223.47023139 -70.67236328 212.83056641 C-70.9351709 212.09435059 -71.19797852 211.35813477 -71.46875 210.59960938 C-77.44616364 193.41752876 -79.92647178 175.85251957 -82.41064453 157.90869141 C-82.73345429 155.5830256 -83.05640115 153.25738075 -83.38043213 150.93188477 C-83.64873044 149.00067544 -83.91340751 147.06896394 -84.17773438 145.13720703 C-84.3345166 144.08210937 -84.49129883 143.02701172 -84.65283203 141.93994141 C-84.84268677 140.61687988 -84.84268677 140.61687988 -85.03637695 139.26708984 C-86.30997506 134.38781573 -89.25725548 131.03389627 -92.67236328 127.45556641 C-96.5665908 123.20442114 -100.07830881 118.78512899 -103.48486328 114.14306641 C-103.94054687 113.5257666 -104.39623047 112.9084668 -104.86572266 112.27246094 C-118.00860757 94.15018406 -120.024476 71.51697736 -117.04345703 49.72119141 C-114.7419655 35.85269703 -108.9480903 20.82857108 -98.67236328 10.83056641 C-98.01236328 10.83056641 -97.35236328 10.83056641 -96.67236328 10.83056641 C-96.67236328 10.17056641 -96.67236328 9.51056641 -96.67236328 8.83056641 C-92.20177505 4.83056641 -92.20177505 4.83056641 -89.67236328 4.83056641 C-89.67236328 4.17056641 -89.67236328 3.51056641 -89.67236328 2.83056641 C-67.37198137 -17.66916355 -23.88021266 -16.69871805 0 0 Z " fill="#EE0A00" transform="translate(566.67236328125,147.16943359375)"/>
<path d="M0 0 C19.56557246 -0.53957814 37.80497736 8.77038396 52.5078125 21.16015625 C53.25289062 21.74410156 53.99796875 22.32804687 54.765625 22.9296875 C67.92351175 33.61108986 72.5043271 48.54429249 74.2578125 64.91015625 C74.99716693 77.27023355 73.56043093 88.97843242 71.1953125 101.09765625 C70.99470215 102.13946045 70.7940918 103.18126465 70.58740234 104.25463867 C68.62905659 113.75436003 65.95586059 121.99985193 59.8203125 129.59765625 C59.38895996 130.13841797 58.95760742 130.67917969 58.51318359 131.23632812 C57.19036784 132.88803674 55.85104215 134.52502771 54.5078125 136.16015625 C53.67894531 137.18238281 52.85007812 138.20460938 51.99609375 139.2578125 C50.50873509 141.08443644 49.01599782 142.90670685 47.515625 144.72265625 C46.85304688 145.52703125 46.19046875 146.33140625 45.5078125 147.16015625 C44.45207031 148.36671875 44.45207031 148.36671875 43.375 149.59765625 C39.39768216 155.05606734 38.98290533 161.20695405 38.1953125 167.72265625 C33.08798443 207.03431741 33.08798443 207.03431741 27.20996094 224.10302734 C26.42262862 226.40972489 25.69062627 228.73160362 24.953125 231.0546875 C21.69478036 240.94725115 18.21508907 247.90705848 10.5078125 255.16015625 C9.32631974 256.52243778 8.15881917 257.89702089 7.0078125 259.28515625 C-18.04033831 287.96932896 -53.77902873 300.35693739 -90.3984375 305.57421875 C-92.4921875 305.16015625 -92.4921875 305.16015625 -94.1015625 303.12890625 C-102.60724672 284.97070397 -109.2677275 265.76725916 -113.4921875 246.16015625 C-113.6581543 245.3933252 -113.82412109 244.62649414 -113.99511719 243.83642578 C-116.2657628 233.13286647 -117.96444921 222.39398123 -119.3046875 211.53515625 C-119.44076416 210.44984619 -119.57684082 209.36453613 -119.71704102 208.24633789 C-119.83490967 207.23563232 -119.95277832 206.22492676 -120.07421875 205.18359375 C-120.17968018 204.28560059 -120.2851416 203.38760742 -120.39379883 202.46240234 C-120.4921875 200.16015625 -120.4921875 200.16015625 -119.4921875 197.16015625 C-118.84894531 197.2065625 -118.20570313 197.25296875 -117.54296875 197.30078125 C-103.54153282 197.86003975 -92.38892564 191.91044864 -80.52197266 185.2487793 C-78.4551465 184.14029026 -76.34897708 183.18209358 -74.21484375 182.2109375 C-70.55397925 180.39642595 -68.79697595 178.44353604 -66.7421875 174.84765625 C-66.21109375 173.94402344 -65.68 173.04039062 -65.1328125 172.109375 C-64.59140625 171.13613281 -64.05 170.16289062 -63.4921875 169.16015625 C-62.83605469 168.03996094 -62.17992187 166.91976562 -61.50390625 165.765625 C-55.65822276 155.6759628 -55.65822276 155.6759628 -53.56640625 144.50390625 C-54.28868589 142.13249101 -55.19229519 140.26995032 -56.4921875 138.16015625 C-56.93691406 137.43699219 -57.38164062 136.71382812 -57.83984375 135.96875 C-58.82900348 134.45203842 -59.84423743 132.95206143 -60.8828125 131.46875 C-74.81274047 111.48674167 -79.91737299 87.86093977 -76.7421875 63.66015625 C-76.35397756 61.48821044 -75.93876769 59.3208556 -75.4921875 57.16015625 C-75.30785156 56.15984375 -75.12351563 55.15953125 -74.93359375 54.12890625 C-71.54103102 38.11432441 -61.42619345 20.26632352 -47.4921875 11.16015625 C-42.02022834 8.34877005 -36.28650628 6.20242789 -30.4921875 4.16015625 C-29.01685547 3.63228516 -29.01685547 3.63228516 -27.51171875 3.09375 C-18.55338851 0.2883425 -9.28754976 0.42593908 0 0 Z " fill="#EE0A00" transform="translate(330.4921875,135.83984375)"/>
<path d="M0 0 C4.47738939 3.01362748 7.7427397 6.88225987 11.21484375 10.96484375 C12.90201149 12.88828881 14.65901641 14.66241291 16.5 16.4375 C22.46819131 22.35264072 27.17689455 29.1091235 31.75 36.125 C32.31533447 36.98557007 32.31533447 36.98557007 32.89208984 37.86352539 C35.38844394 41.7642879 37.25222427 45.71893135 39 50 C40.22841194 52.65906243 41.47001043 55.31136828 42.71875 57.9609375 C46.24140984 66.31651479 47.90171253 74.46700612 49.1875 83.4375 C49.36474609 84.62021484 49.54199219 85.80292969 49.72460938 87.02148438 C51 95.62421573 51 95.62421573 51 98 C44.27451106 96.86008662 38.73772436 94.65529765 32.59765625 91.7109375 C28.72356142 89.8685341 24.8110114 88.1420975 20.875 86.4375 C16.38893133 84.49172254 11.9284799 82.51210319 7.5 80.4375 C1.8118266 77.83183973 -4.04013841 75.69569535 -9.90234375 73.5234375 C-19.81087164 69.8487825 -29.53126112 65.86615549 -39.125 61.4375 C-39.93106689 61.07358154 -40.73713379 60.70966309 -41.56762695 60.3347168 C-48.28780514 57.17482283 -52.48484757 53.35502549 -56.25 46.875 C-56.75015625 46.02679688 -57.2503125 45.17859375 -57.765625 44.3046875 C-62.09194883 36.22705757 -60.38572242 26.22767441 -57.953125 17.7578125 C-55.55632784 10.82281745 -53.10710596 7.24941581 -46.5 3.75 C-44.35168304 2.79111707 -42.18397627 1.87462557 -40 1 C-38.46085938 0.37738281 -38.46085938 0.37738281 -36.890625 -0.2578125 C-25.20480849 -4.41470743 -11.57039343 -4.96445946 0 0 Z " fill="#EF0D00" transform="translate(617,54)"/>
<path d="M0 0 C6.22363483 4.97890787 9.19417944 10.95790995 10.546875 18.75 C11.19307156 27.7809909 7.88145495 37.17095594 2.609375 44.4375 C-1.22870439 48.86445439 -5.1842868 51.13223512 -10.390625 53.5625 C-11.78733805 54.22993299 -13.18319265 54.8991658 -14.578125 55.5703125 C-15.57138794 56.04561401 -15.57138794 56.04561401 -16.5847168 56.53051758 C-18.55444097 57.48804526 -18.55444097 57.48804526 -20.97265625 59.01953125 C-23.91231851 60.74343658 -26.87282587 61.83916194 -30.078125 63 C-31.49777682 63.52240331 -32.9170172 64.04592552 -34.3359375 64.5703125 C-35.12774414 64.86196289 -35.91955078 65.15361328 -36.73535156 65.45410156 C-51.54017078 70.93716627 -66.19822964 76.50675771 -80.390625 83.4375 C-82.1569822 84.25968561 -83.92723387 85.07361517 -85.703125 85.875 C-86.37988281 86.18308594 -87.05664062 86.49117188 -87.75390625 86.80859375 C-89.390625 87.4375 -89.390625 87.4375 -91.390625 87.4375 C-92.61686019 64.68402481 -86.09761086 42.33009331 -71.8515625 24.390625 C-70.19904477 22.18137669 -68.83664236 19.88638445 -67.453125 17.5 C-62.52366633 9.15192973 -56.87970914 2.56909231 -49.390625 -3.5625 C-48.82988281 -4.06007813 -48.26914063 -4.55765625 -47.69140625 -5.0703125 C-35.45841628 -15.85506436 -12.1093059 -7.91457902 0 0 Z " fill="#EE0A00" transform="translate(286.390625,66.5625)"/>
<path d="M0 0 C8.10913256 6.67810916 13.03125843 18.70594585 14.3984375 29 C14.65012609 31.66653859 14.85504053 34.32574765 15 37 C8.13107822 39.41014799 8.13107822 39.41014799 4.91015625 38.2421875 C3 37.125 3 37.125 0 35 C0.66 34.34 1.32 33.68 2 33 C1.6814823 30.89179203 1.6814823 30.89179203 1 29 C0.34 29 -0.32 29 -1 29 C-1.33 29.66 -1.66 30.32 -2 31 C-3.32 31 -4.64 31 -6 31 C-5.34 29.35 -4.68 27.7 -4 26 C-3.01 26 -2.02 26 -1 26 C-1.33 25.01 -1.66 24.02 -2 23 C-3.98 23.66 -5.96 24.32 -8 25 C-8 24.01 -8 23.02 -8 22 C-7.34 22 -6.68 22 -6 22 C-6 21.34 -6 20.68 -6 20 C-6.66 19.67 -7.32 19.34 -8 19 C-7.34 19 -6.68 19 -6 19 C-6 18.34 -6 17.68 -6 17 C-6.66 16.67 -7.32 16.34 -8 16 C-9.33333333 15.33333333 -10.66666667 14.66666667 -12 14 C-8.47320901 11.64880601 -6.97120515 11.78556548 -2.8125 11.875 C-1.72582031 11.89304688 -0.63914062 11.91109375 0.48046875 11.9296875 C1.72763672 11.96449219 1.72763672 11.96449219 3 12 C1.90931332 8.22454612 1.0916909 5.52956528 -2 3 C-1.34 2.01 -0.68 1.02 0 0 Z " fill="#F01300" transform="translate(583,163)"/>
<path d="M0 0 C1.65 0.33 3.3 0.66 5 1 C5.33 2.32 5.66 3.64 6 5 C7.32 5 8.64 5 10 5 C10.66 4.34 11.32 3.68 12 3 C17.82991261 6.82623391 22.8605237 10.34271572 27 16 C26.34 16 25.68 16 25 16 C24.566875 16.825 24.13375 17.65 23.6875 18.5 C23.130625 19.325 22.57375 20.15 22 21 C19.3125 21.3125 19.3125 21.3125 17 21 C15.87119943 17.68885166 14.78697325 14.41021743 14 11 C12.35 11.33 10.7 11.66 9 12 C9.66 12.33 10.32 12.66 11 13 C11 14.32 11 15.64 11 17 C9.35 16.67 7.7 16.34 6 16 C6.33 16.99 6.66 17.98 7 19 C3.67788217 20.03127355 0.83521031 20.05965788 -2.625 19.8125 C-3.58664062 19.75707031 -4.54828125 19.70164063 -5.5390625 19.64453125 C-8 19 -8 19 -9.3359375 16.94921875 C-9.66464844 15.98435547 -9.66464844 15.98435547 -10 15 C-10.99 16.485 -10.99 16.485 -12 18 C-12.66 16.68 -13.32 15.36 -14 14 C-13.01 13.67 -12.02 13.34 -11 13 C-11.2475 12.195625 -11.2475 12.195625 -11.5 11.375 C-12.09660212 8.54113991 -12.0656368 5.8880194 -12 3 C-10.05785796 5.27990588 -9.04574648 6.53109858 -8.75 9.5625 C-8.5025 10.366875 -8.255 11.17125 -8 12 C-4.52692672 13.86983745 -4.52692672 13.86983745 -1 15 C-1 15.66 -1 16.32 -1 17 C3.41522109 15.73025028 3.41522109 15.73025028 7 13 C6.34 11.68 5.68 10.36 5 9 C4.67 9.99 4.34 10.98 4 12 C1 11 1 11 -1 9 C-1.66 8.67 -2.32 8.34 -3 8 C-3 7.34 -3 6.68 -3 6 C-1.68 6 -0.36 6 1 6 C0.67 5.67 0.34 5.34 0 5 C-0.04063832 3.33382885 -0.042721 1.66611905 0 0 Z " fill="#F01400" transform="translate(365,150)"/>
<path d="M0 0 C0.33 0.66 0.66 1.32 1 2 C4.57535019 3.0761054 4.57535019 3.0761054 8 2 C8 2.66 8 3.32 8 4 C9.11375 3.67 10.2275 3.34 11.375 3 C17.16703604 1.54424763 23.29258842 1.09752947 29 3 C31.06618749 2.90731495 31.06618749 2.90731495 33.1875 2.5625 C34.445625 2.376875 35.70375 2.19125 37 2 C36.67 3.65 36.34 5.3 36 7 C35.278125 7.0825 34.55625 7.165 33.8125 7.25 C30.44686746 8.14750201 28.58387184 9.7114278 26 12 C26 11.34 26 10.68 26 10 C22.7 9.67 19.4 9.34 16 9 C15.67 9.66 15.34 10.32 15 11 C14.34 10.01 13.68 9.02 13 8 C10.43717258 7.27034634 10.43717258 7.27034634 8 7 C7.67 7.99 7.34 8.98 7 10 C5.35 8.68 3.7 7.36 2 6 C1.67 6.66 1.34 7.32 1 8 C0.01 6.02 -0.98 4.04 -2 2 C-1.34 1.34 -0.68 0.68 0 0 Z " fill="#EC0100" transform="translate(545,315)"/>
<path d="M0 0 C1 1 2 2 3 3 C3.53625 3.12375 4.0725 3.2475 4.625 3.375 C7.90448613 4.23802267 10.89567189 5.6453841 14 7 C14.99 7.33 15.98 7.66 17 8 C17 9.65 17 11.3 17 13 C14.36 12.67 11.72 12.34 9 12 C9 11.34 9 10.68 9 10 C5.39007621 10.65585189 5.39007621 10.65585189 2 12 C2 13.65 2 15.3 2 17 C1.01 17 0.02 17 -1 17 C-1 17.99 -1 18.98 -1 20 C-2.65 20 -4.3 20 -6 20 C-6.33 17.36 -6.66 14.72 -7 12 C-5.68 11.67 -4.36 11.34 -3 11 C-3 10.34 -3 9.68 -3 9 C-2.34 9 -1.68 9 -1 9 C-0.67 7.68 -0.34 6.36 0 5 C-1.32 5 -2.64 5 -4 5 C-4 5.66 -4 6.32 -4 7 C-4.99 7 -5.98 7 -7 7 C-7 6.01 -7 5.02 -7 4 C-5.824375 3.566875 -5.824375 3.566875 -4.625 3.125 C-1.90328368 2.15087746 -1.90328368 2.15087746 0 0 Z " fill="#F01600" transform="translate(523,236)"/>
<path d="M0 0 C0.70125 0.06703125 1.4025 0.1340625 2.125 0.203125 C4 0.75 4 0.75 6 3.75 C3.61766476 5.0327959 1.40889449 5.93544487 -1.1875 6.75 C-4.12865478 7.42987492 -4.12865478 7.42987492 -5 9.75 C-7.5625 10.375 -7.5625 10.375 -10 10.75 C-9.34 11.41 -8.68 12.07 -8 12.75 C-7.01 12.09 -6.02 11.43 -5 10.75 C-4.01 10.75 -3.02 10.75 -2 10.75 C-2 11.41 -2 12.07 -2 12.75 C-3.32 12.75 -4.64 12.75 -6 12.75 C-6 13.41 -6 14.07 -6 14.75 C-6.66 14.75 -7.32 14.75 -8 14.75 C-8.33 15.74 -8.66 16.73 -9 17.75 C-10.65 18.08 -12.3 18.41 -14 18.75 C-14.33 17.76 -14.66 16.77 -15 15.75 C-15.99 16.74 -16.98 17.73 -18 18.75 C-18.99 18.42 -19.98 18.09 -21 17.75 C-21.33 16.76 -21.66 15.77 -22 14.75 C-20.68 14.75 -19.36 14.75 -18 14.75 C-18 13.76 -18 12.77 -18 11.75 C-16.75 10.0625 -16.75 10.0625 -15 8.75 C-13.68 8.75 -12.36 8.75 -11 8.75 C-10.67 7.43 -10.34 6.11 -10 4.75 C-9.01 5.08 -8.02 5.41 -7 5.75 C-6.87625 4.945625 -6.7525 4.14125 -6.625 3.3125 C-6.41875 2.466875 -6.2125 1.62125 -6 0.75 C-3.64710301 -0.4264485 -2.58181049 -0.28475851 0 0 Z " fill="#F01400" transform="translate(332,296.25)"/>
<path d="M0 0 C2.475 0.495 2.475 0.495 5 1 C4.67 3.31 4.34 5.62 4 8 C3.01 8 2.02 8 1 8 C1.33 9.32 1.66 10.64 2 12 C0.68 12 -0.64 12 -2 12 C-1.01 12.66 -0.02 13.32 1 14 C0.67 14.99 0.34 15.98 0 17 C-0.66 16.67 -1.32 16.34 -2 16 C-2.33 16.66 -2.66 17.32 -3 18 C-4.175625 17.690625 -4.175625 17.690625 -5.375 17.375 C-6.674375 17.189375 -6.674375 17.189375 -8 17 C-8.66 17.66 -9.32 18.32 -10 19 C-11.76462683 15.91190305 -12 14.76687864 -12 11 C-13.98 11 -15.96 11 -18 11 C-17.67 9.68 -17.34 8.36 -17 7 C-15.1875 6.375 -15.1875 6.375 -13 6 C-12.01 6.66 -11.02 7.32 -10 8 C-10 8.99 -10 9.98 -10 11 C-7.66924071 10.04134491 -7.66924071 10.04134491 -6 7 C-6.33 6.67 -6.66 6.34 -7 6 C-7 5.34 -7 4.68 -7 4 C-4.69 4 -2.38 4 0 4 C0 2.68 0 1.36 0 0 Z " fill="#F01500" transform="translate(541,247)"/>
<path d="M0 0 C1.98 0.66 3.96 1.32 6 2 C6 2.66 6 3.32 6 4 C6.66 4 7.32 4 8 4 C8 4.66 8 5.32 8 6 C6.68 6.33 5.36 6.66 4 7 C4 7.99 4 8.98 4 10 C5.65 10.33 7.3 10.66 9 11 C9 10.67 9 10.34 9 10 C10.65 10 12.3 10 14 10 C13.01 10.495 13.01 10.495 12 11 C11.28272222 12.64551962 10.61674772 14.31422289 10 16 C9.67 16.66 9.34 17.32 9 18 C9.99 18 10.98 18 12 18 C12.33 16.68 12.66 15.36 13 14 C13.99 14 14.98 14 16 14 C16.33 13.34 16.66 12.68 17 12 C17.66 12.66 18.32 13.32 19 14 C18.21625 14.598125 17.4325 15.19625 16.625 15.8125 C13.85425677 17.91085249 13.85425677 17.91085249 12 21 C8.375 21.1875 8.375 21.1875 5 21 C4.67 22.32 4.34 23.64 4 25 C1.69 24.34 -0.62 23.68 -3 23 C-1.68 22.67 -0.36 22.34 1 22 C0.34 19.69 -0.32 17.38 -1 15 C-0.34 15 0.32 15 1 15 C1 16.32 1 17.64 1 19 C1.78375 18.814375 2.5675 18.62875 3.375 18.4375 C6 18 6 18 8 19 C8 18.34 8 17.68 8 17 C6.35 16.67 4.7 16.34 3 16 C3 14.35 3 12.7 3 11 C1.35 10.67 -0.3 10.34 -2 10 C-1.67 9.0925 -1.34 8.185 -1 7.25 C0.19605723 3.92954193 0.19605723 3.92954193 0 0 Z " fill="#F11700" transform="translate(303,286)"/>
<path d="M0 0 C2.31 0 4.62 0 7 0 C6.67 1.32 6.34 2.64 6 4 C6.99 4.33 7.98 4.66 9 5 C8.67 5.66 8.34 6.32 8 7 C5.6015625 7.37890625 5.6015625 7.37890625 2.625 7.5625 C-0.53642575 7.76686657 -2.98133648 7.99377883 -6 9 C-5.67 10.65 -5.34 12.3 -5 14 C-2.97954558 13.39816251 -0.97888961 12.72693904 1 12 C1.33 11.34 1.66 10.68 2 10 C2.99 10 3.98 10 5 10 C4.42906864 13.3114019 3.45395174 14.75054423 1 17 C0.67 17.66 0.34 18.32 0 19 C-0.99 19.66 -1.98 20.32 -3 21 C-3.66 21.66 -4.32 22.32 -5 23 C-7 20 -7 20 -7 18 C-8.32 17.67 -9.64 17.34 -11 17 C-11.33 15.68 -11.66 14.36 -12 13 C-10.35 12.34 -8.7 11.68 -7 11 C-7 10.34 -7 9.68 -7 9 C-7.66 9 -8.32 9 -9 9 C-8.375 7.0625 -8.375 7.0625 -7 5 C-3.875 4.25 -3.875 4.25 -1 4 C-1 3.34 -1 2.68 -1 2 C-0.67 1.34 -0.34 0.68 0 0 Z " fill="#ED0400" transform="translate(563,255)"/>
<path d="M0 0 C-1.19899698 3.0831351 -2.47700477 6.06279492 -4 9 C-1.10765685 9.82638376 0.88742431 10 4 10 C4.66 10.33 5.32 10.66 6 11 C4.70803687 14.87588938 2.1460688 16.91209301 -1.11328125 19.16015625 C-3 20 -3 20 -6.4375 19.3125 C-7.7059375 18.6628125 -7.7059375 18.6628125 -9 18 C-8.67 17.01 -8.34 16.02 -8 15 C-8.99 15 -9.98 15 -11 15 C-10.835 13.906875 -10.67 12.81375 -10.5 11.6875 C-9.93281816 8.12474127 -9.93281816 8.12474127 -10 5 C-8.57421875 3.61328125 -8.57421875 3.61328125 -6.6875 2.3125 C-6.07261719 1.87550781 -5.45773437 1.43851563 -4.82421875 0.98828125 C-3 0 -3 0 0 0 Z " fill="#EE0600" transform="translate(490,143)"/>
<path d="M0 0 C1.093125 0.185625 2.18625 0.37125 3.3125 0.5625 C6.93624133 1.2578068 6.93624133 1.2578068 10 0 C12.6875 0.4375 12.6875 0.4375 15 1 C15 1.99 15 2.98 15 4 C13.3125 5.125 13.3125 5.125 11 6 C8.25 5.125 8.25 5.125 6 4 C6.474375 4.721875 6.94875 5.44375 7.4375 6.1875 C8.95935593 8.92684067 9.74777092 10.88917474 10 14 C9.34 14.66 8.68 15.32 8 16 C7.67 15.01 7.34 14.02 7 13 C6.34 12.67 5.68 12.34 5 12 C4.67 11.01 4.34 10.02 4 9 C2.35 9 0.7 9 -1 9 C-0.67 9.99 -0.34 10.98 0 12 C-0.99 12.33 -1.98 12.66 -3 13 C-5.0625 11.25 -5.0625 11.25 -7 9 C-6.82246387 5.98188578 -6.16264785 5.16264785 -4 3 C-3.01 3 -2.02 3 -1 3 C-0.67 3.66 -0.34 4.32 0 5 C0.66 4.67 1.32 4.34 2 4 C1.34 2.68 0.68 1.36 0 0 Z " fill="#ED0300" transform="translate(270,248)"/>
<path d="M0 0 C1.46484375 1.26953125 2.9296875 2.5390625 4.39453125 3.80859375 C6.10712971 5.20871231 6.10712971 5.20871231 9 6 C8.773125 6.763125 8.54625 7.52625 8.3125 8.3125 C8.1578125 9.6428125 8.1578125 9.6428125 8 11 C9.33378575 12.8354799 9.33378575 12.8354799 11 14 C9.35 14 7.7 14 6 14 C6.66 15.32 7.32 16.64 8 18 C6.35 18.33 4.7 18.66 3 19 C3 18.34 3 17.68 3 17 C2.34 16.67 1.68 16.34 1 16 C1.66 16 2.32 16 3 16 C2.34 14.35 1.68 12.7 1 11 C0.01 12.485 0.01 12.485 -1 14 C-2.65 13.67 -4.3 13.34 -6 13 C-6 12.34 -6 11.68 -6 11 C-5.34 11 -4.68 11 -4 11 C-4 10.34 -4 9.68 -4 9 C-4.99 9 -5.98 9 -7 9 C-6.67 7.35 -6.34 5.7 -6 4 C-4.0625 4.3125 -4.0625 4.3125 -2 5 C-1.67 5.99 -1.34 6.98 -1 8 C0.87543354 4.13236554 0.87543354 4.13236554 0 0 Z " fill="#EE0500" transform="translate(645,115)"/>
<path d="M0 0 C4.29 0.33 8.58 0.66 13 1 C12.67 1.99 12.34 2.98 12 4 C9.03 3.505 9.03 3.505 6 3 C6.03122943 4.96756452 6.03122943 4.96756452 7 7 C9.99615946 8.3045656 9.99615946 8.3045656 13 9 C12.1875 10.9375 12.1875 10.9375 11 13 C10.01 13.33 9.02 13.66 8 14 C8 13.34 8 12.68 8 12 C6.05396726 11.40929986 6.05396726 11.40929986 4 11 C3.67 11.33 3.34 11.66 3 12 C0.9375 11.5625 0.9375 11.5625 -1 11 C-1.33 11.66 -1.66 12.32 -2 13 C-2.99 12.34 -3.98 11.68 -5 11 C-4.34 11 -3.68 11 -3 11 C-3.57344937 8.13275314 -3.8614515 7.1385485 -6 5 C-5.34 4.01 -4.68 3.02 -4 2 C-2.125 2.25 -2.125 2.25 0 3 C1.25 5.0625 1.25 5.0625 2 7 C2.66 6.01 3.32 5.02 4 4 C3.34 4 2.68 4 2 4 C2 3.34 2 2.68 2 2 C1.34 2 0.68 2 0 2 C0 1.34 0 0.68 0 0 Z " fill="#F01500" transform="translate(511,355)"/>
<path d="M0 0 C1.65 0 3.3 0 5 0 C5 1.65 5 3.3 5 5 C6.32 5.33 7.64 5.66 9 6 C6.93687686 9.66415876 4.64127824 12.70548128 1.8125 15.8125 C0.73935547 16.99779297 0.73935547 16.99779297 -0.35546875 18.20703125 C-0.89816406 18.79871094 -1.44085938 19.39039063 -2 20 C-2.99 19.67 -3.98 19.34 -5 19 C-7.33299825 18.96045766 -9.66708189 18.95598268 -12 19 C-12.33 17.68 -12.66 16.36 -13 15 C-12.113125 15.165 -11.22625 15.33 -10.3125 15.5 C-7.46403108 15.92995757 -4.86995198 16.08441035 -2 16 C-2 15.34 -2 14.68 -2 14 C-2.66 14 -3.32 14 -4 14 C-4 13.34 -4 12.68 -4 12 C-3.01 12 -2.02 12 -1 12 C-0.01 9.03 0.98 6.06 2 3 C0.68 2.67 -0.64 2.34 -2 2 C-1.34 2 -0.68 2 0 2 C0 1.34 0 0.68 0 0 Z " fill="#F01400" transform="translate(338,377)"/>
<path d="M0 0 C0.33 1.32 0.66 2.64 1 4 C1.66 4 2.32 4 3 4 C2.3203125 5.953125 2.3203125 5.953125 1 8 C-1.3828125 8.609375 -1.3828125 8.609375 -4.125 8.75 C-5.03507812 8.80671875 -5.94515625 8.8634375 -6.8828125 8.921875 C-7.93082031 8.96054687 -7.93082031 8.96054687 -9 9 C-9.5534764 11.07553648 -10 12.84365964 -10 15 C-10.66 15 -11.32 15 -12 15 C-12 14.34 -12 13.68 -12 13 C-13.32 13 -14.64 13 -16 13 C-16.33 12.01 -16.66 11.02 -17 10 C-16.34 9.01 -15.68 8.02 -15 7 C-14.01 7 -13.02 7 -12 7 C-11.79375 6.21625 -11.5875 5.4325 -11.375 4.625 C-10 2 -10 2 -7.125 0.6875 C-4 0 -4 0 0 0 Z " fill="#ED0400" transform="translate(381,259)"/>
<path d="M0 0 C2.92879371 0.62759865 5.36095629 1.58622659 8 3 C7.34 4.32 6.68 5.64 6 7 C3.36 7 0.72 7 -2 7 C-2 7.66 -2 8.32 -2 9 C0.33317216 9.77772405 2.61435923 10.42415568 5 11 C5 11.66 5 12.32 5 13 C4.34 13 3.68 13 3 13 C3 13.99 3 14.98 3 16 C-0.47263143 15.43626113 -1.91317065 14.39149033 -4.125 11.6875 C-4.62257813 11.09324219 -5.12015625 10.49898438 -5.6328125 9.88671875 C-7.00183084 7.99747344 -8.02026781 6.1134223 -9 4 C-6.02588876 2.76078698 -3.14737182 1.69941596 0 1 C0 0.67 0 0.34 0 0 Z " fill="#F01500" transform="translate(513,372)"/>
<path d="M0 0 C2.475 0.495 2.475 0.495 5 1 C5 1.66 5 2.32 5 3 C7.3078491 4.15392455 9.47230331 4.53437166 12 5 C11.67 5.99 11.34 6.98 11 8 C13.31 8 15.62 8 18 8 C18.33 9.32 18.66 10.64 19 12 C15.98968256 12.93423645 15.13349732 13.04449911 12 12 C11.01 12.66 10.02 13.32 9 14 C7.25372522 11.38058783 6.61277612 9.96175123 6 7 C5.01 8.485 5.01 8.485 4 10 C3.01 10.495 3.01 10.495 2 11 C1.34 7.37 0.68 3.74 0 0 Z " fill="#F01300" transform="translate(452,236)"/>
<path d="M0 0 C0.99 0.33 1.98 0.66 3 1 C2.67 1.66 2.34 2.32 2 3 C3.65 3.66 5.3 4.32 7 5 C4.3401439 8.44216672 1.09711714 8.99504674 -3 10 C-3.66 9.34 -4.32 8.68 -5 8 C-5 7.01 -5 6.02 -5 5 C-6.29633621 6.06645115 -6.29633621 6.06645115 -6.0625 8.5625 C-6.041875 9.366875 -6.02125 10.17125 -6 11 C-6.66 10.34 -7.32 9.68 -8 9 C-8.99 9.66 -9.98 10.32 -11 11 C-12.32 11 -13.64 11 -15 11 C-15 10.34 -15 9.68 -15 9 C-14.01 9 -13.02 9 -12 9 C-11.67 6.36 -11.34 3.72 -11 1 C-5.46153846 1.61538462 -5.46153846 1.61538462 -3.125 3.5625 C-2.568125 4.2740625 -2.568125 4.2740625 -2 5 C-1.34 3.35 -0.68 1.7 0 0 Z " fill="#EC0200" transform="translate(565,229)"/>
<path d="M0 0 C0.99 0 1.98 0 3 0 C3 1.32 3 2.64 3 4 C5.475 4.99 5.475 4.99 8 6 C8.33 5.01 8.66 4.02 9 3 C11.52588702 5.36292656 12.88820837 6.66462511 14 10 C13.34 10 12.68 10 12 10 C12 9.34 12 8.68 12 8 C11.21625 8.309375 10.4325 8.61875 9.625 8.9375 C-1.56521739 12.2173913 -1.56521739 12.2173913 -6 10 C-6 9.01 -6 8.02 -6 7 C-5.01 7 -4.02 7 -3 7 C-3 6.34 -3 5.68 -3 5 C-3.66 4.67 -4.32 4.34 -5 4 C-4.34 3.67 -3.68 3.34 -3 3 C-2.01 3.33 -1.02 3.66 0 4 C0 2.68 0 1.36 0 0 Z " fill="#ED0200" transform="translate(300,192)"/>
<path d="M0 0 C0 0.99 0 1.98 0 3 C1.98 2.34 3.96 1.68 6 1 C8 4 8 4 8 6 C9.32 6 10.64 6 12 6 C12.33 7.98 12.66 9.96 13 12 C12.01 12 11.02 12 10 12 C9.67 12.66 9.34 13.32 9 14 C8.34 14 7.68 14 7 14 C7 13.34 7 12.68 7 12 C6.01 11.67 5.02 11.34 4 11 C3.67 9.35 3.34 7.7 3 6 C0.10765685 5.17361624 -1.88742431 5 -5 5 C-5 4.34 -5 3.68 -5 3 C-5.66 2.67 -6.32 2.34 -7 2 C-2.25 0 -2.25 0 0 0 Z " fill="#F01400" transform="translate(479,250)"/>
<path d="M0 0 C0.99 0.99 1.98 1.98 3 3 C3.33 2.34 3.66 1.68 4 1 C6.0625 0.375 6.0625 0.375 8 0 C8.33 0.99 8.66 1.98 9 3 C8.34 3 7.68 3 7 3 C7.33 4.65 7.66 6.3 8 8 C5.61435923 7.42415568 3.33317216 6.77772405 1 6 C1 6.66 1 7.32 1 8 C1.66 8 2.32 8 3 8 C3 8.66 3 9.32 3 10 C1.02253397 10.73080266 -0.98072489 11.39421747 -3 12 C-3.66 11.67 -4.32 11.34 -5 11 C-5.33 11.66 -5.66 12.32 -6 13 C-7.32 12.01 -8.64 11.02 -10 10 C-9.67 8.68 -9.34 7.36 -9 6 C-7.515 6.99 -7.515 6.99 -6 8 C-6 8.66 -6 9.32 -6 10 C-5.01 9.67 -4.02 9.34 -3 9 C-2.67 8.34 -2.34 7.68 -2 7 C-2.99 6.67 -3.98 6.34 -5 6 C-4.67 5.01 -4.34 4.02 -4 3 C-3.01 2.67 -2.02 2.34 -1 2 C-0.67 1.34 -0.34 0.68 0 0 Z " fill="#F01400" transform="translate(568,410)"/>
<path d="M0 0 C0.99 1.32 1.98 2.64 3 4 C8.445 3.01 8.445 3.01 14 2 C12.71567636 4.56864728 11.63365249 4.946539 9 6 C7.68 6 6.36 6 5 6 C6.32 7.65 7.64 9.3 9 11 C7.3125 11.8125 7.3125 11.8125 5 12 C2.25 9.5625 2.25 9.5625 0 7 C0 8.32 0 9.64 0 11 C-2.97 10.505 -2.97 10.505 -6 10 C-6.33 8.02 -6.66 6.04 -7 4 C-5.68 4 -4.36 4 -3 4 C-2.67 3.01 -2.34 2.02 -2 1 C-1.34 0.67 -0.68 0.34 0 0 Z " fill="#F01300" transform="translate(481,238)"/>
<path d="M0 0 C1.25 3.0625 1.25 3.0625 2 6 C3.32 5.67 4.64 5.34 6 5 C5.75 6.875 5.75 6.875 5 9 C2.9375 10.25 2.9375 10.25 1 11 C0.67 10.01 0.34 9.02 0 8 C-1.01320313 7.96132812 -1.01320313 7.96132812 -2.046875 7.921875 C-9.42367067 7.45283019 -9.42367067 7.45283019 -12.625 4.9375 C-13.07875 4.298125 -13.5325 3.65875 -14 3 C-12.02 3 -10.04 3 -8 3 C-7.67 2.01 -7.34 1.02 -7 0 C-2.85526316 -1.38157895 -2.85526316 -1.38157895 0 0 Z " fill="#ED0200" transform="translate(552,188)"/>
<path d="M0 0 C1.45823212 -0.0270043 2.91660675 -0.04639787 4.375 -0.0625 C5.18710937 -0.07410156 5.99921875 -0.08570312 6.8359375 -0.09765625 C9 0 9 0 11 1 C11 1.99 11 2.98 11 4 C12.32 3.67 13.64 3.34 15 3 C14.67 4.32 14.34 5.64 14 7 C13.01 6.67 12.02 6.34 11 6 C11 8.31 11 10.62 11 13 C12.32 13 13.64 13 15 13 C14.67 14.32 14.34 15.64 14 17 C11.5625 16.625 11.5625 16.625 9 16 C8.67 15.34 8.34 14.68 8 14 C7.34 14 6.68 14 6 14 C6.33 13.01 6.66 12.02 7 11 C7.66 11 8.32 11 9 11 C8.67 9.35 8.34 7.7 8 6 C7.236875 5.896875 6.47375 5.79375 5.6875 5.6875 C2.81583516 4.95288806 1.76957906 4.3283935 0 2 C0 1.34 0 0.68 0 0 Z " fill="#ED0300" transform="translate(624,74)"/>
<path d="M0 0 C3.14624993 -0.26218749 4.61837017 -0.24754367 7.3125 1.5 C8.1478125 2.2425 8.1478125 2.2425 9 3 C9.66 2.01 10.32 1.02 11 0 C13.16874252 0.50603992 14.99967627 0.99983813 17 2 C17 1.34 17 0.68 17 0 C17.99 0 18.98 0 20 0 C20 1.65 20 3.3 20 5 C21.32 4.67 22.64 4.34 24 4 C23.67 5.32 23.34 6.64 23 8 C20.25 8.6875 20.25 8.6875 17 9 C14.625 7.5625 14.625 7.5625 13 6 C13.33 5.01 13.66 4.02 14 3 C13.01 3.66 12.02 4.32 11 5 C8.80859375 4.86328125 8.80859375 4.86328125 6.4375 4.3125 C5.65246094 4.14363281 4.86742187 3.97476562 4.05859375 3.80078125 C2 3 2 3 0 0 Z " fill="#F01400" transform="translate(538,350)"/>
<path d="M0 0 C2.97 0 5.94 0 9 0 C8.67 0.99 8.34 1.98 8 3 C8.33 3.66 8.66 4.32 9 5 C6.525 4.505 6.525 4.505 4 4 C4 3.34 4 2.68 4 2 C3.34 2 2.68 2 2 2 C2.33 3.65 2.66 5.3 3 7 C3.66 7 4.32 7 5 7 C4.67 8.65 4.34 10.3 4 12 C3.34 11.67 2.68 11.34 2 11 C2.33 10.34 2.66 9.68 3 9 C-0.14624993 8.73781251 -1.61837017 8.75245633 -4.3125 10.5 C-4.869375 10.995 -5.42625 11.49 -6 12 C-5.67 12.66 -5.34 13.32 -5 14 C-5.99 13.67 -6.98 13.34 -8 13 C-8.58984375 11.22265625 -8.58984375 11.22265625 -8.9375 9.0625 C-9.55653294 5.69357363 -9.55653294 5.69357363 -12.125 3.5 C-12.74375 3.335 -13.3625 3.17 -14 3 C-11.525 3.495 -11.525 3.495 -9 4 C-8.67 5.32 -8.34 6.64 -8 8 C-7.01 8 -6.02 8 -5 8 C-4.67 7.01 -4.34 6.02 -4 5 C-2.35 5.33 -0.7 5.66 1 6 C1 5.01 1 4.02 1 3 C0.34 2.67 -0.32 2.34 -1 2 C-0.67 1.34 -0.34 0.68 0 0 Z " fill="#F01300" transform="translate(270,102)"/>
<path d="M0 0 C0 0.66 0 1.32 0 2 C0.70125 1.62875 1.4025 1.2575 2.125 0.875 C5.76443651 -0.23265459 7.55700411 0.55874591 11 2 C9.625 4 9.625 4 8 6 C7.34 6 6.68 6 6 6 C6 7.65 6 9.3 6 11 C6.66 11.33 7.32 11.66 8 12 C6.35 12.33 4.7 12.66 3 13 C3.33 11.68 3.66 10.36 4 9 C2.68 9.33 1.36 9.66 0 10 C0.061875 9.21625 0.12375 8.4325 0.1875 7.625 C0.125625 6.75875 0.06375 5.8925 0 5 C-3.22791555 2.8480563 -4.28400809 2.79913557 -8 3 C-3.5 0 -3.5 0 0 0 Z " fill="#F01500" transform="translate(269,180)"/>
<path d="M0 0 C2.3125 -0.1875 2.3125 -0.1875 5 0 C6.5625 1.4375 6.5625 1.4375 8 3 C10.10332891 3.71447643 10.10332891 3.71447643 12 4 C12 5.65 12 7.3 12 9 C9.16032769 9 6.76264289 8.59732819 4 8 C3.67 8.66 3.34 9.32 3 10 C1.0625 9.6875 1.0625 9.6875 -1 9 C-2.25541557 5.23375329 -1.37061958 3.62811066 0 0 Z " fill="#F01600" transform="translate(540,360)"/>
<path d="M0 0 C-0.125 1.875 -0.125 1.875 -1 4 C-5.8 6 -5.8 6 -8 6 C-8 6.99 -8 7.98 -8 9 C-7.34 9.66 -6.68 10.32 -6 11 C-6.66 11 -7.32 11 -8 11 C-8.33 11.66 -8.66 12.32 -9 13 C-9.268125 12.360625 -9.53625 11.72125 -9.8125 11.0625 C-10.88667752 8.66868314 -10.88667752 8.66868314 -14 8 C-14.8125 6.0625 -14.8125 6.0625 -15 4 C-14.34 3.34 -13.68 2.68 -13 2 C-12.01 2 -11.02 2 -10 2 C-9.67 1.34 -9.34 0.68 -9 0 C-5.75266665 -1.2757381 -3.32967418 -0.83241855 0 0 Z " fill="#F01300" transform="translate(471,172)"/>
<path d="M0 0 C3.09738905 1.12632329 5.82634522 2.4702787 8.625 4.1875 C9.73875 4.785625 10.8525 5.38375 12 6 C12.99 5.67 13.98 5.34 15 5 C12.525 4.01 12.525 4.01 10 3 C10 2.67 10 2.34 10 2 C13.3125 2.1875 13.3125 2.1875 17 3 C18.9375 5.5625 18.9375 5.5625 20 8 C17 9 17 9 14 8 C13.67 8.66 13.34 9.32 13 10 C10.69 9.01 8.38 8.02 6 7 C6 6.34 6 5.68 6 5 C3.83125748 5.50603992 2.00032373 5.99983813 0 7 C-0.66 6.67 -1.32 6.34 -2 6 C-1.49396008 3.83125748 -1.00016187 2.00032373 0 0 Z " fill="#ED0300" transform="translate(545,141)"/>
<path d="M0 0 C0.99 1.32 1.98 2.64 3 4 C2.67 4.66 2.34 5.32 2 6 C1.34 6 0.68 6 0 6 C0 6.66 0 7.32 0 8 C-0.66 8 -1.32 8 -2 8 C-2 8.66 -2 9.32 -2 10 C-2.99 10 -3.98 10 -5 10 C-5.33 10.99 -5.66 11.98 -6 13 C-6.33 12.34 -6.66 11.68 -7 11 C-6.67 10.34 -6.34 9.68 -6 9 C-7.65 8.67 -9.3 8.34 -11 8 C-10.67 6.02 -10.34 4.04 -10 2 C-8.68 3.32 -7.36 4.64 -6 6 C-6.66 4.68 -7.32 3.36 -8 2 C-5.36 2 -2.72 2 0 2 C0 1.34 0 0.68 0 0 Z " fill="#F11600" transform="translate(352,247)"/>
<path d="M0 0 C1.65 0 3.3 0 5 0 C5 0.66 5 1.32 5 2 C4.01 2 3.02 2 2 2 C2 2.66 2 3.32 2 4 C5.60992379 3.34414811 5.60992379 3.34414811 9 2 C9 4.31 9 6.62 9 9 C8.01 9 7.02 9 6 9 C5.67 8.34 5.34 7.68 5 7 C1.97065509 6.34227572 1.97065509 6.34227572 -1 6 C-1 6.66 -1 7.32 -1 8 C-3.16967689 8.95465783 -4.56328793 9.14401212 -6.82421875 8.3984375 C-8.5684743 7.64129615 -10.28627131 6.82390802 -12 6 C-11.67 5.34 -11.34 4.68 -11 4 C-9.9275 4.020625 -8.855 4.04125 -7.75 4.0625 C-4.85209576 4.0142016 -2.71387859 3.86844115 0 3 C0 2.01 0 1.02 0 0 Z " fill="#ED0500" transform="translate(636,392)"/>
<path d="M0 0 C0 0.66 0 1.32 0 2 C1.32 1.67 2.64 1.34 4 1 C4.66 2.98 5.32 4.96 6 7 C5.360625 7.28875 4.72125 7.5775 4.0625 7.875 C1.84793921 8.82823451 1.84793921 8.82823451 1 11 C1.5775 10.814375 2.155 10.62875 2.75 10.4375 C5.20692525 9.95976454 6.64397534 10.24270636 9 11 C8.67 11.66 8.34 12.32 8 13 C5.51587793 13.82804069 3.64779693 14 1 14 C-0.65 9.71 -2.3 5.42 -4 1 C-2 0 -2 0 0 0 Z " fill="#F01400" transform="translate(500,358)"/>
<path d="M0 0 C0.763125 0.61875 1.52625 1.2375 2.3125 1.875 C4.99625809 4.05597052 4.99625809 4.05597052 8 6 C8.1875 8.625 8.1875 8.625 8 11 C6.35 11 4.7 11 3 11 C3 10.34 3 9.68 3 9 C-0.86763446 7.12456646 -0.86763446 7.12456646 -5 8 C-5 6.35 -5 4.7 -5 3 C-3.35 2.67 -1.7 2.34 0 2 C0 1.34 0 0.68 0 0 Z " fill="#F11C00" transform="translate(590,309)"/>
<path d="M0 0 C0.268125 0.639375 0.53625 1.27875 0.8125 1.9375 C1.88667752 4.33131686 1.88667752 4.33131686 5 5 C5 4.34 5 3.68 5 3 C6.98 3.66 8.96 4.32 11 5 C10.125 9.75 10.125 9.75 9 12 C7.35 12 5.7 12 4 12 C4 11.01 4 10.02 4 9 C3.01 9 2.02 9 1 9 C-1.1875 7.125 -1.1875 7.125 -3 5 C-3 3 -3 3 -1.5 1.375 C-1.005 0.92125 -0.51 0.4675 0 0 Z " fill="#ED0300" transform="translate(578,242)"/>
<path d="M0 0 C0.78375 0.04125 1.5675 0.0825 2.375 0.125 C1.8489075 3.91286597 0.99396089 6.29652224 -1.625 9.125 C-2.285 9.125 -2.945 9.125 -3.625 9.125 C-3.625 9.785 -3.625 10.445 -3.625 11.125 C-6.595 10.63 -6.595 10.63 -9.625 10.125 C-9.955 7.815 -10.285 5.505 -10.625 3.125 C-9.305 3.125 -7.985 3.125 -6.625 3.125 C-6.625 3.785 -6.625 4.445 -6.625 5.125 C-5.635 5.125 -4.645 5.125 -3.625 5.125 C-3.955 4.135 -4.285 3.145 -4.625 2.125 C-2.625 0.125 -2.625 0.125 0 0 Z " fill="#ED0400" transform="translate(592.625,232.875)"/>
<path d="M0 0 C2.375 -0.1875 2.375 -0.1875 5 0 C5.66 0.99 6.32 1.98 7 3 C7.99 3 8.98 3 10 3 C9.34 4.65 8.68 6.3 8 8 C8.99 8 9.98 8 11 8 C10.67 9.32 10.34 10.64 10 12 C6.625 12.125 6.625 12.125 3 12 C2.34 11.34 1.68 10.68 1 10 C2.2065625 9.319375 2.2065625 9.319375 3.4375 8.625 C6.08856572 7.25274335 6.08856572 7.25274335 7 5 C4.69 5.33 2.38 5.66 0 6 C-1 3 -1 3 0 0 Z " fill="#F11600" transform="translate(310,207)"/>
<path d="M0 0 C3.3 0 6.6 0 10 0 C9 2 9 2 7.125 2.6875 C5 3 5 3 2 2 C2.66 4.31 3.32 6.62 4 9 C3.01 9 2.02 9 1 9 C1.33 9.66 1.66 10.32 2 11 C-0.91482778 11.80967438 -2.46113217 12.21845993 -5.3125 11.0625 C-5.869375 10.711875 -6.42625 10.36125 -7 10 C-6.34 10 -5.68 10 -5 10 C-5 8.02 -5 6.04 -5 4 C-3.35 3.67 -1.7 3.34 0 3 C0 2.01 0 1.02 0 0 Z " fill="#F01200" transform="translate(265,79)"/>
<path d="M0 0 C0.33 0.66 0.66 1.32 1 2 C2.84971696 3.05021103 2.84971696 3.05021103 5 4 C5.70125 4.391875 6.4025 4.78375 7.125 5.1875 C7.74375 5.455625 8.3625 5.72375 9 6 C9.66 5.67 10.32 5.34 11 5 C11.33 6.32 11.66 7.64 12 9 C10.68 9.99 9.36 10.98 8 12 C9.32 12 10.64 12 12 12 C12 12.66 12 13.32 12 14 C10.35 14.33 8.7 14.66 7 15 C6.67 13.35 6.34 11.7 6 10 C4.576875 9.9071875 4.576875 9.9071875 3.125 9.8125 C0 9 0 9 -1.5 6.6875 C-2.07200864 3.61295355 -1.70428601 2.55642901 0 0 Z " fill="#F01300" transform="translate(301,373)"/>
<path d="M0 0 C0.66 0.66 1.32 1.32 2 2 C2.99 1.67 3.98 1.34 5 1 C5.33 1.99 5.66 2.98 6 4 C5.01 4 4.02 4 3 4 C2.87625 4.969375 2.7525 5.93875 2.625 6.9375 C2.41875 7.948125 2.2125 8.95875 2 10 C-1.06890187 11.53445094 -3.70094266 10.54984289 -7 10 C-7.625 8.1875 -7.625 8.1875 -8 6 C-7.34 5.01 -6.68 4.02 -6 3 C-5.01 3.99 -4.02 4.98 -3 6 C-3 4.68 -3 3.36 -3 2 C-2.01 1.34 -1.02 0.68 0 0 Z " fill="#F01500" transform="translate(310,363)"/>
<path d="M0 0 C1.85772162 0.08984301 3.71247985 0.24611861 5.5625 0.4375 C7.08037109 0.59025391 7.08037109 0.59025391 8.62890625 0.74609375 C9.80259766 0.87177734 9.80259766 0.87177734 11 1 C11 2.65 11 4.3 11 6 C10.34 6 9.68 6 9 6 C9 5.01 9 4.02 9 3 C4.89015821 4.70062419 2.96537085 7.06925831 1 11 C-0.65 11 -2.3 11 -4 11 C-4 9.35 -4 7.7 -4 6 C-3.34 6 -2.68 6 -2 6 C-2 5.34 -2 4.68 -2 4 C-0.68 3.34 0.64 2.68 2 2 C1.01 1.67 0.02 1.34 -1 1 C-0.67 0.67 -0.34 0.34 0 0 Z " fill="#F01300" transform="translate(504,244)"/>
<path d="M0 0 C3.3 0 6.6 0 10 0 C10 0.99 10 1.98 10 3 C9.34 3 8.68 3 8 3 C7.67 3.99 7.34 4.98 7 6 C6.01 5.67 5.02 5.34 4 5 C4 4.34 4 3.68 4 3 C3.34 3 2.68 3 2 3 C2.99 3.99 3.98 4.98 5 6 C4.67 6.99 4.34 7.98 4 9 C3.01 9 2.02 9 1 9 C1 7.68 1 6.36 1 5 C0.34 5 -0.32 5 -1 5 C-1.33 6.65 -1.66 8.3 -2 10 C-2.33 10 -2.66 10 -3 10 C-3 7.36 -3 4.72 -3 2 C-2.01 1.67 -1.02 1.34 0 1 C0 0.67 0 0.34 0 0 Z " fill="#ED0400" transform="translate(199,142)"/>
<path d="M0 0 C0 0.66 0 1.32 0 2 C1.45833358 3.62514468 1.45833358 3.62514468 3 5 C3.99 4.01 4.98 3.02 6 2 C6 2.66 6 3.32 6 4 C6.66 4.33 7.32 4.66 8 5 C7.34 5.66 6.68 6.32 6 7 C5.83312552 9.58354218 5.83312552 9.58354218 6 12 C4.35 11.67 2.7 11.34 1 11 C1.33 9.68 1.66 8.36 2 7 C-0.31 7.33 -2.62 7.66 -5 8 C-5.33 6.68 -5.66 5.36 -6 4 C-5.34 3.67 -4.68 3.34 -4 3 C-4 2.34 -4 1.68 -4 1 C-2 0 -2 0 0 0 Z " fill="#F01400" transform="translate(570,387)"/>
<path d="M0 0 C0.66 1.32 1.32 2.64 2 4 C2.99 4 3.98 4 5 4 C4.67 5.32 4.34 6.64 4 8 C3.34 8 2.68 8 2 8 C1.67 8.99 1.34 9.98 1 11 C-0.32 10.34 -1.64 9.68 -3 9 C-4.485 11.475 -4.485 11.475 -6 14 C-6.99 13.67 -7.98 13.34 -9 13 C-8.34 12.67 -7.68 12.34 -7 12 C-7 10.02 -7 8.04 -7 6 C-5.68 6 -4.36 6 -3 6 C-3 5.34 -3 4.68 -3 4 C-2.34 3.34 -1.68 2.68 -1 2 C-0.67 1.34 -0.34 0.68 0 0 Z " fill="#ED0300" transform="translate(604,77)"/>
<path d="M0 0 C0.33 0.66 0.66 1.32 1 2 C1.99 2.33 2.98 2.66 4 3 C6.00781177 3.98422146 8.00892752 4.98234073 10 6 C9.34 7.32 8.68 8.64 8 10 C7.01 10 6.02 10 5 10 C5 10.66 5 11.32 5 12 C3.68 12.33 2.36 12.66 1 13 C1 10.33333333 1 7.66666667 1 5 C0.01 4.67 -0.98 4.34 -2 4 C-1.34 2.68 -0.68 1.36 0 0 Z " fill="#F01300" transform="translate(314,275)"/>
<path d="M0 0 C0.66 0.33 1.32 0.66 2 1 C2.33333333 2.66666667 2.66666667 4.33333333 3 6 C3.66 6.33 4.32 6.66 5 7 C5.33 6.34 5.66 5.68 6 5 C6.33 5.99 6.66 6.98 7 8 C7.33 7.01 7.66 6.02 8 5 C8.66 5 9.32 5 10 5 C9.979375 5.78375 9.95875 6.5675 9.9375 7.375 C9.81315937 9.98114961 9.81315937 9.98114961 11 12 C11.99 12.33 12.98 12.66 14 13 C13.67 13.99 13.34 14.98 13 16 C12.67 15.01 12.34 14.02 12 13 C11.34 13 10.68 13 10 13 C9.67 13.66 9.34 14.32 9 15 C8.34 14.01 7.68 13.02 7 12 C6.01 12.495 6.01 12.495 5 13 C5 12.34 5 11.68 5 11 C4.34 10.67 3.68 10.34 3 10 C2.67 10.33 2.34 10.66 2 11 C1.01 10.34 0.02 9.68 -1 9 C-0.67 8.67 -0.34 8.34 0 8 C0.07148199 6.64756083 0.08399454 5.29165633 0.0625 3.9375 C0.041875 2.638125 0.02125 1.33875 0 0 Z " fill="#F01300" transform="translate(494,225)"/>
<path d="M0 0 C2.475 0.99 2.475 0.99 5 2 C5 4.64 5 7.28 5 10 C3 7 3 7 3 5 C2.34 5 1.68 5 1 5 C1.33 7.31 1.66 9.62 2 12 C1.01 12 0.02 12 -1 12 C-1.061875 11.38125 -1.12375 10.7625 -1.1875 10.125 C-1.455625 9.42375 -1.72375 8.7225 -2 8 C-3.65204456 7.29788106 -5.31923769 6.63028587 -7 6 C-7.33 5.01 -7.66 4.02 -8 3 C-5.03 3.495 -5.03 3.495 -2 4 C-2 4.66 -2 5.32 -2 6 C-1.34 6.33 -0.68 6.66 0 7 C-0.66 5.35 -1.32 3.7 -2 2 C-1.34 1.34 -0.68 0.68 0 0 Z " fill="#F01500" transform="translate(595,206)"/>
<path d="M0 0 C1.98 0.66 3.96 1.32 6 2 C6.33 3.65 6.66 5.3 7 7 C6.34 7 5.68 7 5 7 C4.505 7.495 4.01 7.99 3.5 8.5 C3.005 8.995 2.51 9.49 2 10 C1.34 10 0.68 10 0 10 C0.33 8.68 0.66 7.36 1 6 C0.566875 6.495 0.13375 6.99 -0.3125 7.5 C-2 9 -2 9 -5 9 C-5 7.35 -5 5.7 -5 4 C-4.34 3.67 -3.68 3.34 -3 3 C-3 3.66 -3 4.32 -3 5 C-2.34 5 -1.68 5 -1 5 C-0.67 3.35 -0.34 1.7 0 0 Z " fill="#F01600" transform="translate(261,184)"/>
<path d="M0 0 C5.41372419 3.09355668 8.49777237 6.88327027 12 12 C11.34 12.66 10.68 13.32 10 14 C9.649375 13.525625 9.29875 13.05125 8.9375 12.5625 C6.15836457 10.32126175 3.4855283 10.32882342 0 10 C-0.33 9.01 -0.66 8.02 -1 7 C-0.34 7 0.32 7 1 7 C1 6.01 1 5.02 1 4 C0.34 3.67 -0.32 3.34 -1 3 C-0.67 2.01 -0.34 1.02 0 0 Z " fill="#F01300" transform="translate(617,55)"/>
<path d="M0 0 C0.66 1.32 1.32 2.64 2 4 C4.12364481 4.22609337 4.12364481 4.22609337 5.625 2.5 C6.305625 1.7575 6.305625 1.7575 7 1 C7.33 2.32 7.66 3.64 8 5 C8.99 5 9.98 5 11 5 C11.66 6.32 12.32 7.64 13 9 C12.01 9 11.02 9 10 9 C9.38125 9.391875 8.7625 9.78375 8.125 10.1875 C7.42375 10.455625 6.7225 10.72375 6 11 C3.14421282 9.67172689 1.42678029 8.85356058 0 6 C-0.039992 4.00039988 -0.04346799 1.99952758 0 0 Z " fill="#F01400" transform="translate(483,290)"/>
<path d="M0 0 C1.65 0.33 3.3 0.66 5 1 C4.67 1.66 4.34 2.32 4 3 C4.721875 2.79375 5.44375 2.5875 6.1875 2.375 C9.44641585 1.94047789 11.08304504 2.58319331 14 4 C11.6084939 6.3915061 10.28552716 6.51919115 7 7 C6.01 7 5.02 7 4 7 C3.01 7.33 2.02 7.66 1 8 C0.01 7.67 -0.98 7.34 -2 7 C-1.34 4.69 -0.68 2.38 0 0 Z " fill="#EC0100" transform="translate(550,165)"/>
<path d="M0 0 C0.66 0.33 1.32 0.66 2 1 C1.67 2.32 1.34 3.64 1 5 C0.34 5 -0.32 5 -1 5 C-1.33 5.99 -1.66 6.98 -2 8 C-2.33 7.34 -2.66 6.68 -3 6 C-4.32 6.33 -5.64 6.66 -7 7 C-6.67 7.66 -6.34 8.32 -6 9 C-7.32 9.99 -8.64 10.98 -10 12 C-10.66 11.67 -11.32 11.34 -12 11 C-12 10.01 -12 9.02 -12 8 C-11.01 8 -10.02 8 -9 8 C-8.87625 7.030625 -8.7525 6.06125 -8.625 5.0625 C-8.41875 4.051875 -8.2125 3.04125 -8 2 C-7.34 1.67 -6.68 1.34 -6 1 C-5.01 1.33 -4.02 1.66 -3 2 C-2.01 1.34 -1.02 0.68 0 0 Z " fill="#F01600" transform="translate(293,184)"/>
<path d="M0 0 C1.32 0 2.64 0 4 0 C3.67 2.31 3.34 4.62 3 7 C1.35 7 -0.3 7 -2 7 C-2.66 8.98 -3.32 10.96 -4 13 C-4.99 13 -5.98 13 -7 13 C-7.66 11.35 -8.32 9.7 -9 8 C-7.68 8 -6.36 8 -5 8 C-5.33 6.68 -5.66 5.36 -6 4 C-5.34 4 -4.68 4 -4 4 C-4 4.66 -4 5.32 -4 6 C-2.68 5.67 -1.36 5.34 0 5 C0 3.35 0 1.7 0 0 Z " fill="#F01200" transform="translate(396,242)"/>
<path d="M0 0 C0.33 0.99 0.66 1.98 1 3 C2.65 2.67 4.3 2.34 6 2 C6 2.66 6 3.32 6 4 C6.66 4 7.32 4 8 4 C8 3.01 8 2.02 8 1 C8.99 1 9.98 1 11 1 C11.33 3.31 11.66 5.62 12 8 C11.401875 7.835 10.80375 7.67 10.1875 7.5 C7.88655664 6.8885876 7.88655664 6.8885876 5 7 C5 6.34 5 5.68 5 5 C4.401875 5.515625 3.80375 6.03125 3.1875 6.5625 C2.465625 7.036875 1.74375 7.51125 1 8 C0.01 7.67 -0.98 7.34 -2 7 C-1.34 4.69 -0.68 2.38 0 0 Z " fill="#EC0100" transform="translate(609,99)"/>
<path d="M0 0 C0.99 0 1.98 0 3 0 C3 0.66 3 1.32 3 2 C5.75641416 1.50243908 5.75641416 1.50243908 8 0 C8.66 0 9.32 0 10 0 C10 3.63 10 7.26 10 11 C9.34 11 8.68 11 8 11 C7.67 11.66 7.34 12.32 7 13 C6.67 12.34 6.34 11.68 6 11 C6.33 10.34 6.66 9.68 7 9 C7.66 9 8.32 9 9 9 C7.68 7.68 6.36 6.36 5 5 C4.34 5.66 3.68 6.32 3 7 C2.67 6.01 2.34 5.02 2 4 C1.01 4.33 0.02 4.66 -1 5 C-0.67 3.35 -0.34 1.7 0 0 Z " fill="#F01200" transform="translate(394,195)"/>
<path d="M0 0 C0.66 0 1.32 0 2 0 C2 0.66 2 1.32 2 2 C3.32 2 4.64 2 6 2 C5.34 1.34 4.68 0.68 4 0 C6.31 0 8.62 0 11 0 C9.74280103 3.77159691 8.2876691 4.83312718 5 7 C2.4375 7.5 2.4375 7.5 0 7 C-2.3125 5 -2.3125 5 -4 3 C-3.01 3 -2.02 3 -1 3 C-0.67 2.01 -0.34 1.02 0 0 Z " fill="#F01400" transform="translate(518,340)"/>
<path d="M0 0 C1.32 0.33 2.64 0.66 4 1 C3.79375 1.5775 3.5875 2.155 3.375 2.75 C2.70744585 5.39517786 2.70744585 5.39517786 5 9 C2.03 9 -0.94 9 -4 9 C-4.66 7.68 -5.32 6.36 -6 5 C-4.625 3.5 -4.625 3.5 -3 2 C-2.34 2 -1.68 2 -1 2 C-0.67 1.34 -0.34 0.68 0 0 Z " fill="#EC0100" transform="translate(285,260)"/>
<path d="M0 0 C0.33 0 0.66 0 1 0 C1 1.65 1 3.3 1 5 C1.66 5 2.32 5 3 5 C3 4.34 3 3.68 3 3 C3.66 3 4.32 3 5 3 C5 3.99 5 4.98 5 6 C5.66 6 6.32 6 7 6 C6.67 6.66 6.34 7.32 6 8 C5.01 8 4.02 8 3 8 C4.65 8.33 6.3 8.66 8 9 C6.68 10.65 5.36 12.3 4 14 C1.5 11.75 1.5 11.75 -1 9 C-1 5.72724974 -0.70074844 3.153368 0 0 Z " fill="#F01200" transform="translate(468,230)"/>
<path d="M0 0 C0.33 0.99 0.66 1.98 1 3 C0.67 3.66 0.34 4.32 0 5 C-1.33076989 5.34342449 -2.66431979 5.67619874 -4 6 C-4.66 6.66 -5.32 7.32 -6 8 C-6 7.34 -6 6.68 -6 6 C-7.65 6.66 -9.3 7.32 -11 8 C-11 6.02 -11 4.04 -11 2 C-7.58249876 1.21885686 -4.49438389 1 -1 1 C-0.67 0.67 -0.34 0.34 0 0 Z " fill="#F01300" transform="translate(364,324)"/>
<path d="M0 0 C0.66 1.32 1.32 2.64 2 4 C1.01 4 0.02 4 -1 4 C-1 4.99 -1 5.98 -1 7 C-0.34 7.33 0.32 7.66 1 8 C0.67 8.99 0.34 9.98 0 11 C-3.63 8.69 -7.26 6.38 -11 4 C-10.34 3.34 -9.68 2.68 -9 2 C-7.0625 2.375 -7.0625 2.375 -5 3 C-4.01 3 -3.02 3 -2 3 C-1.34 2.01 -0.68 1.02 0 0 Z " fill="#F11700" transform="translate(550,406)"/>
<path d="M0 0 C3.07531556 0.33246655 4.61832506 0.63104756 6.875 2.8125 C8 5 8 5 7.6875 7 C7.460625 7.66 7.23375 8.32 7 9 C7 10.32 7 11.64 7 13 C6.67 12.34 6.34 11.68 6 11 C5.34 11 4.68 11 4 11 C4 10.34 4 9.68 4 9 C3.34 9 2.68 9 2 9 C1.855625 7.88625 1.71125 6.7725 1.5625 5.625 C1.21627965 2.17857953 1.21627965 2.17857953 0 0 Z " fill="#F01400" transform="translate(540,395)"/>
<path d="M0 0 C-5 5 -5 5 -8 7 C-8.33 5.68 -8.66 4.36 -9 3 C-10.32 3.33 -11.64 3.66 -13 4 C-11.25 0.125 -11.25 0.125 -9 -1 C-5.22188881 -2.09366377 -3.35593834 -2.11299821 0 0 Z " fill="#F01400" transform="translate(521,234)"/>
<path d="M0 0 C0.66 1.32 1.32 2.64 2 4 C1.34 4 0.68 4 0 4 C0.33 4.99 0.66 5.98 1 7 C0.01 7.33 -0.98 7.66 -2 8 C-2.33 8.66 -2.66 9.32 -3 10 C-3.66 10 -4.32 10 -5 10 C-5 10.66 -5 11.32 -5 12 C-5.66 12 -6.32 12 -7 12 C-7.33 13.65 -7.66 15.3 -8 17 C-8.99 16.01 -9.98 15.02 -11 14 C-10.2884375 13.1028125 -10.2884375 13.1028125 -9.5625 12.1875 C-7.83534256 9.99617076 -7.83534256 9.99617076 -7 7 C-3.9375 5.8125 -3.9375 5.8125 -1 5 C-0.67 3.35 -0.34 1.7 0 0 Z " fill="#F01100" transform="translate(528,180)"/>
<path d="M0 0 C3.79588866 0.54226981 5.47211993 2.20127563 8 5 C6.68 5.33 5.36 5.66 4 6 C3.67 7.32 3.34 8.64 3 10 C3 9.34 3 8.68 3 8 C-1.455 7.01 -1.455 7.01 -6 6 C-6 5.34 -6 4.68 -6 4 C-2.94736336 3.01879536 -1.05263664 3.01879536 2 4 C2 3.34 2 2.68 2 2 C1.34 2 0.68 2 0 2 C0 1.34 0 0.68 0 0 Z " fill="#F01300" transform="translate(341,265)"/>
<path d="M0 0 C2.91517292 1.07401108 4.77810176 1.77810176 7 4 C6.01 4.495 6.01 4.495 5 5 C4.34444881 7.52733235 4.34444881 7.52733235 4 10 C1.5625 9.25 1.5625 9.25 -1 8 C-1.9375 6.125 -1.9375 6.125 -2 4 C-1.0625 1.75 -1.0625 1.75 0 0 Z " fill="#F01500" transform="translate(274,211)"/>
<path d="M0 0 C2.31 0.66 4.62 1.32 7 2 C7.33 3.32 7.66 4.64 8 6 C3.28400182 6.92470553 0.32734391 7.22923777 -4 5 C-1.125 1.125 -1.125 1.125 0 0 Z " fill="#ED0200" transform="translate(559,174)"/>
<path d="M0 0 C-0.165 0.94875 -0.33 1.8975 -0.5 2.875 C-1.06707688 6.4192305 -1.13778927 7.58663219 0 11 C0.66 11.33 1.32 11.66 2 12 C1.01 12.33 0.02 12.66 -1 13 C-1 12.01 -1 11.02 -1 10 C-1.61875 9.79375 -2.2375 9.5875 -2.875 9.375 C-5.84653645 7.45224112 -6.13024659 5.33405473 -7 2 C-2.25 0 -2.25 0 0 0 Z " fill="#F11700" transform="translate(585,85)"/>
<path d="M0 0 C0.99 0 1.98 0 3 0 C3 0.99 3 1.98 3 3 C4.32 2.67 5.64 2.34 7 2 C6.25 4.4375 6.25 4.4375 5 7 C2.07083439 8.32284898 1.12177395 8.04059132 -2 7 C-3.1875 4.9375 -3.1875 4.9375 -4 3 C-2.68 2.67 -1.36 2.34 0 2 C0 1.34 0 0.68 0 0 Z " fill="#F01300" transform="translate(513,347)"/>
<path d="M0 0 C2 2 2 2 2.125 4.625 C2.08375 5.40875 2.0425 6.1925 2 7 C2.66 7 3.32 7 4 7 C4 6.34 4 5.68 4 5 C4.99 5 5.98 5 7 5 C7 6 7 7 7 8 C7.66 8.66 8.32 9.32 9 10 C8.34 10.66 7.68 11.32 7 12 C4.69 11.01 2.38 10.02 0 9 C0 8.34 0 7.68 0 7 C-0.66 7 -1.32 7 -2 7 C-1.125 1.125 -1.125 1.125 0 0 Z " fill="#ED0200" transform="translate(532,277)"/>
<path d="M0 0 C0.33 0.99 0.66 1.98 1 3 C2.65 3 4.3 3 6 3 C6.33 4.98 6.66 6.96 7 9 C5.02 9 3.04 9 1 9 C1 8.34 1 7.68 1 7 C0.01 7 -0.98 7 -2 7 C-2.33 6.01 -2.66 5.02 -3 4 C-2.34 3.67 -1.68 3.34 -1 3 C-0.67 2.01 -0.34 1.02 0 0 Z " fill="#F01400" transform="translate(235,424)"/>
<path d="M0 0 C0.66 0 1.32 0 2 0 C2 0.99 2 1.98 2 3 C1.34 3 0.68 3 0 3 C0.33 3.66 0.66 4.32 1 5 C1.94875 4.505 2.8975 4.01 3.875 3.5 C7 2 7 2 9 2 C8.67 3.65 8.34 5.3 8 7 C6.35 7.33 4.7 7.66 3 8 C3 8.66 3 9.32 3 10 C1.68 9.34 0.36 8.68 -1 8 C-1.125 2.25 -1.125 2.25 0 0 Z " fill="#EC0100" transform="translate(554,333)"/>
<path d="M0 0 C2.64 0.33 5.28 0.66 8 1 C5.36095629 2.41377341 2.92879371 3.37240135 0 4 C0.99 5.65 1.98 7.3 3 9 C1.68 9 0.36 9 -1 9 C-1.33 9.66 -1.66 10.32 -2 11 C-2.66 8.03 -3.32 5.06 -4 2 C-3.01 2 -2.02 2 -1 2 C-0.67 1.34 -0.34 0.68 0 0 Z " fill="#F01400" transform="translate(484,277)"/>
<path d="M0 0 C0.66 0 1.32 0 2 0 C2.33 0.66 2.66 1.32 3 2 C4.97888961 2.72693904 6.97954558 3.39816251 9 4 C9 4.66 9 5.32 9 6 C9.66 6 10.32 6 11 6 C10.67 7.65 10.34 9.3 10 11 C10.66 11 11.32 11 12 11 C12 11.66 12 12.32 12 13 C9.69 13 7.38 13 5 13 C5.33 12.34 5.66 11.68 6 11 C6.66 11 7.32 11 8 11 C7.34 9.02 6.68 7.04 6 5 C4.35 5.33 2.7 5.66 1 6 C0.67 4.02 0.34 2.04 0 0 Z " fill="#F01100" transform="translate(512,257)"/>
<path d="M0 0 C0.99 0.33 1.98 0.66 3 1 C2.05237764 4.27360452 1.55474945 5.67284007 -1.4375 7.4375 C-2.283125 7.623125 -3.12875 7.80875 -4 8 C-4.99 7.34 -5.98 6.68 -7 6 C-7.33 7.32 -7.66 8.64 -8 10 C-8.33 9.01 -8.66 8.02 -9 7 C-7.5625 4.3125 -7.5625 4.3125 -6 2 C-3 3 -3 3 0 4 C0 2.68 0 1.36 0 0 Z " fill="#F01200" transform="translate(499,243)"/>
<path d="M0 0 C0.75 1.75 0.75 1.75 1 4 C-0.875 6.0625 -0.875 6.0625 -3 8 C-3.33 8.99 -3.66 9.98 -4 11 C-5.65 11 -7.3 11 -9 11 C-7.63055898 8.05043472 -6.12169591 5.47531189 -4 3 C-3.34 3 -2.68 3 -2 3 C-2 2.34 -2 1.68 -2 1 C-1.34 0.67 -0.68 0.34 0 0 Z " fill="#F01400" transform="translate(472,155)"/>
<path d="M0 0 C0.66 0 1.32 0 2 0 C3.32 2.64 4.64 5.28 6 8 C5.01 8.33 4.02 8.66 3 9 C2.34 8.67 1.68 8.34 1 8 C1 7.34 1 6.68 1 6 C-0.98 6 -2.96 6 -5 6 C-3.4198632 3.84526801 -1.89353366 1.89353366 0 0 Z " fill="#F01500" transform="translate(503,324)"/>
<path d="M0 0 C-0.33 0.66 -0.66 1.32 -1 2 C-0.34 2 0.32 2 1 2 C1.33 1.01 1.66 0.02 2 -1 C2 0.32 2 1.64 2 3 C2.99 3.33 3.98 3.66 5 4 C4.67 4.66 4.34 5.32 4 6 C0.7 5.34 -2.6 4.68 -6 4 C-5.34 3.67 -4.68 3.34 -4 3 C-4 2.34 -4 1.68 -4 1 C-4.99 0.67 -5.98 0.34 -7 0 C-3.86650268 -1.04449911 -3.01031744 -0.93423645 0 0 Z " fill="#F01400" transform="translate(576,422)"/>
<path d="M0 0 C0.99 0 1.98 0 3 0 C3.33 1.65 3.66 3.3 4 5 C3.01 5 2.02 5 1 5 C1 5.66 1 6.32 1 7 C3.97 7.495 3.97 7.495 7 8 C6.01 9.485 6.01 9.485 5 11 C4.01 11 3.02 11 2 11 C1.34 12.32 0.68 13.64 0 15 C0 10.05 0 5.1 0 0 Z " fill="#F11700" transform="translate(254,212)"/>
<path d="M0 0 C2.64 0 5.28 0 8 0 C6.22570002 2.14783681 5.35636313 2.93603739 2.5625 3.4375 C-0.65600636 4.1440014 -1.87197696 5.55671429 -4 8 C-4 7.34 -4 6.68 -4 6 C-4.99 5.67 -5.98 5.34 -7 5 C-4.64046906 2.64046906 -3.22104383 2.50858587 0 2 C0 1.34 0 0.68 0 0 Z " fill="#F11800" transform="translate(531,393)"/>
<path d="M0 0 C2.375 1.0625 2.375 1.0625 5 3 C6.3125 6.6875 6.3125 6.6875 7 10 C6.01 9.67 5.02 9.34 4 9 C4.33 8.01 4.66 7.02 5 6 C3.35 6.33 1.7 6.66 0 7 C0 6.34 0 5.68 0 5 C-0.66 5 -1.32 5 -2 5 C-2.33 4.01 -2.66 3.02 -3 2 C-2.01 1.34 -1.02 0.68 0 0 Z " fill="#F01400" transform="translate(358,300)"/>
<path d="M0 0 C0 0.66 0 1.32 0 2 C0.66 2 1.32 2 2 2 C2 3.32 2 4.64 2 6 C-0.31 6.33 -2.62 6.66 -5 7 C-5.66 5.02 -6.32 3.04 -7 1 C-4.53721199 -0.231394 -2.7204945 -0.07159196 0 0 Z " fill="#F01300" transform="translate(343,206)"/>
<path d="M0 0 C0.99 0.66 1.98 1.32 3 2 C2.34 2 1.68 2 1 2 C1.33 3.65 1.66 5.3 2 7 C0.68 7.33 -0.64 7.66 -2 8 C-2.33 6.35 -2.66 4.7 -3 3 C-3.33 3.66 -3.66 4.32 -4 5 C-5.32 5 -6.64 5 -8 5 C-8 4.34 -8 3.68 -8 3 C-8.99 2.67 -9.98 2.34 -11 2 C-9.54176788 1.9729957 -8.08339325 1.95360213 -6.625 1.9375 C-5.81289063 1.92589844 -5.00078125 1.91429687 -4.1640625 1.90234375 C-2 2 -2 2 0 3 C0 2.01 0 1.02 0 0 Z " fill="#F01300" transform="translate(323,397)"/>
<path d="M0 0 C2.68525914 0.12205723 5.13358203 0.52696161 7.75 1.125 C5.77 3.435 3.79 5.745 1.75 8.125 C1.42 7.135 1.09 6.145 0.75 5.125 C0.09 5.125 -0.57 5.125 -1.25 5.125 C-1.91 3.805 -2.57 2.485 -3.25 1.125 C-2.25 0.125 -2.25 0.125 0 0 Z " fill="#F01300" transform="translate(269.25,90.875)"/>
<path d="M0 0 C3.63 0 7.26 0 11 0 C11 0.66 11 1.32 11 2 C10.34 2.66 9.68 3.32 9 4 C9 4.66 9 5.32 9 6 C7.1875 6.625 7.1875 6.625 5 7 C4.01 6.34 3.02 5.68 2 5 C3.32 4.67 4.64 4.34 6 4 C6 3.34 6 2.68 6 2 C4.35 2 2.7 2 1 2 C0.67 1.34 0.34 0.68 0 0 Z " fill="#ED0200" transform="translate(591,52)"/>
<path d="M0 0 C0.99 0.33 1.98 0.66 3 1 C3 2.65 3 4.3 3 6 C-4.75 6.125 -4.75 6.125 -7 5 C-7 4.01 -7 3.02 -7 2 C-6.01 1.67 -5.02 1.34 -4 1 C-3.67 1.99 -3.34 2.98 -3 4 C-2.34 4 -1.68 4 -1 4 C-0.67 2.68 -0.34 1.36 0 0 Z " fill="#F01200" transform="translate(255,90)"/>
<path d="M0 0 C0.66 0.66 1.32 1.32 2 2 C2.66 1.67 3.32 1.34 4 1 C4 2.32 4 3.64 4 5 C4.66 5 5.32 5 6 5 C5.67 6.32 5.34 7.64 5 9 C3.68 8.34 2.36 7.68 1 7 C1 6.67 1 6.34 1 6 C0.01 6 -0.98 6 -2 6 C-1.125 1.125 -1.125 1.125 0 0 Z " fill="#ED0200" transform="translate(497,342)"/>
<path d="M0 0 C1.65 0.33 3.3 0.66 5 1 C5.33 2.32 5.66 3.64 6 5 C-0.75 6 -0.75 6 -3 6 C-2.67 4.68 -2.34 3.36 -2 2 C-1.34 2 -0.68 2 0 2 C0 1.34 0 0.68 0 0 Z " fill="#F11700" transform="translate(551,305)"/>
<path d="M0 0 C0.66 0 1.32 0 2 0 C2 0.99 2 1.98 2 3 C2.66 3.33 3.32 3.66 4 4 C4.625 6.5625 4.625 6.5625 5 9 C3.35 9 1.7 9 0 9 C-0.66 7.68 -1.32 6.36 -2 5 C-1.01 4.67 -0.02 4.34 1 4 C0.01 4 -0.98 4 -2 4 C-2 3.34 -2 2.68 -2 2 C-1.34 2 -0.68 2 0 2 C0 1.34 0 0.68 0 0 Z " fill="#ED0400" transform="translate(621,426)"/>
<path d="M0 0 C0.66 0.99 1.32 1.98 2 3 C3.98 2.67 5.96 2.34 8 2 C7.04882866 3.1725131 6.08882991 4.33787015 5.125 5.5 C4.59132813 6.1496875 4.05765625 6.799375 3.5078125 7.46875 C2.76144531 8.22671875 2.76144531 8.22671875 2 9 C1.34 9 0.68 9 0 9 C-0.87890625 2.84765625 -0.87890625 2.84765625 -1 1 C-0.67 0.67 -0.34 0.34 0 0 Z " fill="#F11900" transform="translate(371,277)"/>
<path d="M0 0 C-0.33 1.32 -0.66 2.64 -1 4 C-3.97 3.505 -3.97 3.505 -7 3 C-7 3.66 -7 4.32 -7 5 C-7.66 5 -8.32 5 -9 5 C-9.66 3.68 -10.32 2.36 -11 1 C-9.5437328 0.63743142 -8.08488815 0.28520207 -6.625 -0.0625 C-5.40683594 -0.35833984 -5.40683594 -0.35833984 -4.1640625 -0.66015625 C-2 -1 -2 -1 0 0 Z " fill="#F01500" transform="translate(363,171)"/>
<path d="M0 0 C1.4606285 2.64738916 2 3.89448334 2 7 C-0.8125 8.5625 -0.8125 8.5625 -4 10 C-4.99 9.67 -5.98 9.34 -7 9 C-6.34 7.68 -5.68 6.36 -5 5 C-5 5.66 -5 6.32 -5 7 C-4.01 7 -3.02 7 -2 7 C-2.33 6.01 -2.66 5.02 -3 4 C-2.34 4 -1.68 4 -1 4 C-0.67 2.68 -0.34 1.36 0 0 Z " fill="#ED0200" transform="translate(370,158)"/>
<path d="M0 0 C2.50037734 2.17424117 3.43628586 3.73045798 4 7 C1.1875 7.625 1.1875 7.625 -2 8 C-2.99 7.34 -3.98 6.68 -5 6 C-3.86695008 2.60085025 -2.87481525 1.94745549 0 0 Z " fill="#EE0600" transform="translate(284,271)"/>
<path d="M0 0 C3 3.875 3 3.875 3 5 C1.35 5 -0.3 5 -2 5 C-1.67 7.31 -1.34 9.62 -1 12 C-2.65 11.67 -4.3 11.34 -6 11 C-6 9.68 -6 8.36 -6 7 C-5.01 7 -4.02 7 -3 7 C-3 6.01 -3 5.02 -3 4 C-2.34 3.34 -1.68 2.68 -1 2 C-0.67 1.34 -0.34 0.68 0 0 Z " fill="#F01100" transform="translate(341,146)"/>
<path d="M0 0 C2.97 0.495 2.97 0.495 6 1 C6.33 2.65 6.66 4.3 7 6 C6.34 6 5.68 6 5 6 C5 6.66 5 7.32 5 8 C4.01 8 3.02 8 2 8 C1.67 8.66 1.34 9.32 1 10 C0.3125 8.25 0.3125 8.25 0 6 C1.4375 3.75 1.4375 3.75 3 2 C2.01 1.34 1.02 0.68 0 0 Z " fill="#F01600" transform="translate(297,388)"/>
<path d="M0 0 C1.60031344 3.20062687 0.03173691 5.72271806 -1 9 C-1.33 8.34 -1.66 7.68 -2 7 C-2.66 7 -3.32 7 -4 7 C-6.1385485 4.8614515 -6.42655063 3.86724686 -7 1 C-5.5459375 1.0309375 -5.5459375 1.0309375 -4.0625 1.0625 C-1.12534105 1.35618499 -1.12534105 1.35618499 0 0 Z " fill="#F11700" transform="translate(296,90)"/>
<path d="M0 0 C1.50559539 1.96382007 2.89131683 3.78263366 4 6 C3.05125 6.45375 2.1025 6.9075 1.125 7.375 C-2.00313679 8.80238254 -2.00313679 8.80238254 -4 11 C-4 9.35 -4 7.7 -4 6 C-3.34 6 -2.68 6 -2 6 C-2.33 5.01 -2.66 4.02 -3 3 C-2.34 3 -1.68 3 -1 3 C-0.67 2.01 -0.34 1.02 0 0 Z " fill="#F01300" transform="translate(453,214)"/>
<path d="M0 0 C0.99 0.99 1.98 1.98 3 3 C1 5 1 5 -1.625 5.125 C-2.40875 5.08375 -3.1925 5.0425 -4 5 C-4.33 5.66 -4.66 6.32 -5 7 C-6.32 6.01 -7.64 5.02 -9 4 C-6.0173094 2.47551369 -3.181798 1.06059933 0 0 Z " fill="#F01300" transform="translate(332,140)"/>
<path d="M0 0 C1.32 0 2.64 0 4 0 C4 0.66 4 1.32 4 2 C4.66 2.33 5.32 2.66 6 3 C5.67 3.99 5.34 4.98 5 6 C4.34 6 3.68 6 3 6 C3 5.34 3 4.68 3 4 C1.68 3.67 0.36 3.34 -1 3 C-0.67 3.99 -0.34 4.98 0 6 C-0.99 6.33 -1.98 6.66 -3 7 C-2.67 5.35 -2.34 3.7 -2 2 C-1.34 2 -0.68 2 0 2 C0 1.34 0 0.68 0 0 Z " fill="#ED0200" transform="translate(623,328)"/>
<path d="M0 0 C0.33 0.66 0.66 1.32 1 2 C1.99 2.33 2.98 2.66 4 3 C3.67 3.99 3.34 4.98 3 6 C4.32 6 5.64 6 7 6 C5 8 5 8 2.5625 8.375 C0 8 0 8 -1.8125 6 C-2.204375 5.34 -2.59625 4.68 -3 4 C-2.34 3.67 -1.68 3.34 -1 3 C-0.67 2.01 -0.34 1.02 0 0 Z " fill="#F01400" transform="translate(573,353)"/>
<path d="M0 0 C-3.32307692 3.93846154 -3.32307692 3.93846154 -6.75 4.25 C-7.4925 4.1675 -8.235 4.085 -9 4 C-9 3.34 -9 2.68 -9 2 C-9.99 1.67 -10.98 1.34 -12 1 C-10.33333333 0.66666667 -8.66666667 0.33333333 -7 0 C-6.113125 -0.20625 -5.22625 -0.4125 -4.3125 -0.625 C-2 -1 -2 -1 0 0 Z " fill="#ED0200" transform="translate(543,319)"/>
<path d="M0 0 C0.99 0.99 1.98 1.98 3 3 C2 6 2 6 0 7 C0.66 7.33 1.32 7.66 2 8 C2 9.32 2 10.64 2 12 C1.34 12 0.68 12 0 12 C-0.33 11.34 -0.66 10.68 -1 10 C-1.99 9.34 -2.98 8.68 -4 8 C-3.2884375 7.13375 -3.2884375 7.13375 -2.5625 6.25 C-1.0515133 4.07417916 -0.45963849 2.57397552 0 0 Z " fill="#F01500" transform="translate(570,178)"/>
<path d="M0 0 C3.69230769 0.69230769 3.69230769 0.69230769 5 2 C5.04063832 3.66617115 5.042721 5.33388095 5 7 C3.35 6.67 1.7 6.34 0 6 C-0.38218767 4.34385343 -0.71395102 2.67542976 -1 1 C-0.67 0.67 -0.34 0.34 0 0 Z " fill="#F01200" transform="translate(539,380)"/>
<path d="M0 0 C2.475 0.99 2.475 0.99 5 2 C4.34 3.32 3.68 4.64 3 6 C2.34 5.34 1.68 4.68 1 4 C-0.98 4.66 -2.96 5.32 -5 6 C-5 4.68 -5 3.36 -5 2 C-4.360625 1.855625 -3.72125 1.71125 -3.0625 1.5625 C-1.02454854 1.18992819 -1.02454854 1.18992819 0 0 Z " fill="#F01300" transform="translate(366,288)"/>
<path d="M0 0 C2.97 0.495 2.97 0.495 6 1 C6 1.66 6 2.32 6 3 C6.66 3 7.32 3 8 3 C6.63016497 6.16115776 6.0109362 6.9927092 3 9 C3.33 7.02 3.66 5.04 4 3 C3.401875 3.165 2.80375 3.33 2.1875 3.5 C0 4 0 4 -3 4 C-2.01 2.68 -1.02 1.36 0 0 Z " fill="#F01100" transform="translate(276,224)"/>
<path d="M0 0 C0.66 0.66 1.32 1.32 2 2 C2.99 1.67 3.98 1.34 5 1 C5.66 1 6.32 1 7 1 C6.34 2.65 5.68 4.3 5 6 C3.68 5.67 2.36 5.34 1 5 C1 5.66 1 6.32 1 7 C0.01 7 -0.98 7 -2 7 C-1.34 4.69 -0.68 2.38 0 0 Z " fill="#F01100" transform="translate(322,173)"/>
<path d="M0 0 C1.32 0.66 2.64 1.32 4 2 C3.505 2.391875 3.01 2.78375 2.5 3.1875 C0.54406857 5.55091715 0.75792027 7.01435003 1 10 C0.01 10 -0.98 10 -2 10 C-2 9.01 -2 8.02 -2 7 C-2.66 7 -3.32 7 -4 7 C-4 6.34 -4 5.68 -4 5 C-3.34 5 -2.68 5 -2 5 C-2 4.01 -2 3.02 -2 2 C-1.34 2 -0.68 2 0 2 C0 1.34 0 0.68 0 0 Z " fill="#F01200" transform="translate(348,138)"/>
<path d="M0 0 C0.33 0.66 0.66 1.32 1 2 C1.99 2.33 2.98 2.66 4 3 C1 5 1 5 -1 5 C-1.33 5.66 -1.66 6.32 -2 7 C-2 6.34 -2 5.68 -2 5 C-3.32 4.67 -4.64 4.34 -6 4 C-4.60804085 1.2160817 -2.84424221 1.02101003 0 0 Z " fill="#F01400" transform="translate(341,360)"/>
<path d="M0 0 C2.31 0.66 4.62 1.32 7 2 C6.67 2.66 6.34 3.32 6 4 C4.68 3.67 3.36 3.34 2 3 C1.34 4.32 0.68 5.64 0 7 C-0.99 6.34 -1.98 5.68 -3 5 C-3 3 -3 3 -1.5 1.375 C-1.005 0.92125 -0.51 0.4675 0 0 Z " fill="#F01300" transform="translate(325,361)"/>
<path d="M0 0 C0.99 0 1.98 0 3 0 C3 0.66 3 1.32 3 2 C3.66 2 4.32 2 5 2 C5.33 1.34 5.66 0.68 6 0 C5.8125 1.875 5.8125 1.875 5 4 C2.4375 5.25 2.4375 5.25 0 6 C-0.66 5.01 -1.32 4.02 -2 3 C-1.34 2.01 -0.68 1.02 0 0 Z " fill="#EC0100" transform="translate(288,355)"/>
<path d="M0 0 C1.65 0 3.3 0 5 0 C5 2.31 5 4.62 5 7 C3.0625 6.3125 3.0625 6.3125 1 5 C0.25 2.375 0.25 2.375 0 0 Z " fill="#F01400" transform="translate(301,212)"/>
<path d="M0 0 C0.66 0.66 1.32 1.32 2 2 C1.67 2.33 1.34 2.66 1 3 C1.66 3.33 2.32 3.66 3 4 C3 3.34 3 2.68 3 2 C3.99 2.33 4.98 2.66 6 3 C4.60203108 5.79593783 2.86525011 5.95173777 0 7 C-0.99 7.495 -0.99 7.495 -2 8 C-2 5.69 -2 3.38 -2 1 C-1.34 0.67 -0.68 0.34 0 0 Z " fill="#F01200" transform="translate(391,169)"/>
<path d="M0 0 C-0.66 1.32 -1.32 2.64 -2 4 C-2.99 4 -3.98 4 -5 4 C-5 4.66 -5 5.32 -5 6 C-6.32 5.67 -7.64 5.34 -9 5 C-7.35234966 0.05704899 -4.76872479 -0.25776891 0 0 Z " fill="#ED0200" transform="translate(535,162)"/>
<path d="M0 0 C0 0.66 0 1.32 0 2 C-3.21451269 3.60725635 -6.43612536 3.05748185 -10 3 C-10 2.34 -10 1.68 -10 1 C-6.1496895 -1.56687367 -4.41430237 -0.83288724 0 0 Z " fill="#ED0400" transform="translate(575,60)"/>
<path d="M0 0 C1.32 0.66 2.64 1.32 4 2 C3.34 2 2.68 2 2 2 C2 2.66 2 3.32 2 4 C0.35 4.66 -1.3 5.32 -3 6 C-4.65 4.35 -6.3 2.7 -8 1 C-5.69 1.33 -3.38 1.66 -1 2 C-0.67 1.34 -0.34 0.68 0 0 Z " fill="#F01300" transform="translate(537,400)"/>
<path d="M0 0 C0.625 3.0625 0.625 3.0625 1 6 C-1.9375 5.625 -1.9375 5.625 -5 5 C-6 3 -6 3 -6 0 C-2.25 -1.125 -2.25 -1.125 0 0 Z " fill="#F01600" transform="translate(279,370)"/>
<path d="M0 0 C2.64 0.33 5.28 0.66 8 1 C8 1.66 8 2.32 8 3 C6.35 3.33 4.7 3.66 3 4 C3 4.66 3 5.32 3 6 C2.01 6.33 1.02 6.66 0 7 C0 5.68 0 4.36 0 3 C0.99 3 1.98 3 3 3 C3 2.34 3 1.68 3 1 C2.01 1.33 1.02 1.66 0 2 C0 1.34 0 0.68 0 0 Z " fill="#F01100" transform="translate(540,343)"/>
<path d="M0 0 C3 1 3 1 4 2 C4.99 1.34 5.98 0.68 7 0 C7 1.65 7 3.3 7 5 C4.69 5.33 2.38 5.66 0 6 C0 4.02 0 2.04 0 0 Z " fill="#F01500" transform="translate(340,283)"/>
<path d="M0 0 C-0.57344937 2.86724686 -0.8614515 3.8614515 -3 6 C-3 5.34 -3 4.68 -3 4 C-4.65 3.67 -6.3 3.34 -8 3 C-8 2.34 -8 1.68 -8 1 C-5.29120665 -0.35439668 -2.99066732 -0.06501451 0 0 Z " fill="#EC0100" transform="translate(286,280)"/>
<path d="M0 0 C3.27275026 0 5.846632 0.29925156 9 1 C8.67 1.99 8.34 2.98 8 4 C7.2575 3.979375 6.515 3.95875 5.75 3.9375 C3.29537721 3.99328688 1.33890739 4.3069904 -1 5 C-0.67 3.35 -0.34 1.7 0 0 Z " fill="#F01300" transform="translate(469,187)"/>
<path d="M0 0 C2.64 0 5.28 0 8 0 C7.1875 2.9375 7.1875 2.9375 6 6 C5.01 6.33 4.02 6.66 3 7 C1.79371992 4.66785852 0.8345262 2.50357861 0 0 Z " fill="#EC0100" transform="translate(225,100)"/>
<path d="M0 0 C0.99 0.33 1.98 0.66 3 1 C3 1.66 3 2.32 3 3 C3.763125 3.12375 4.52625 3.2475 5.3125 3.375 C8 4 8 4 11 6 C9.3745692 5.85904936 7.74965949 5.71207913 6.125 5.5625 C5.22007812 5.48128906 4.31515625 5.40007812 3.3828125 5.31640625 C1 5 1 5 -1 4 C-0.67 2.68 -0.34 1.36 0 0 Z " fill="#F01600" transform="translate(588,426)"/>
<path d="M0 0 C2.46800047 1.15173355 4.04783565 2.04783565 6 4 C6.66 4.33 7.32 4.66 8 5 C7.34 6.32 6.68 7.64 6 9 C5.566875 8.360625 5.13375 7.72125 4.6875 7.0625 C3.08760823 4.73253997 3.08760823 4.73253997 0 4 C-0.33 3.01 -0.66 2.02 -1 1 C-0.67 0.67 -0.34 0.34 0 0 Z " fill="#F01200" transform="translate(383,205)"/>
<path d="M0 0 C1.65 0 3.3 0 5 0 C5 0.66 5 1.32 5 2 C4.34 2 3.68 2 3 2 C2.67 3.65 2.34 5.3 2 7 C0.35 7 -1.3 7 -3 7 C-3 6.01 -3 5.02 -3 4 C-1.68 3.34 -0.36 2.68 1 2 C0.67 1.34 0.34 0.68 0 0 Z " fill="#F01400" transform="translate(246,108)"/>
<path d="M0 0 C0 0.99 0 1.98 0 3 C0.66 3 1.32 3 2 3 C1.67 3.99 1.34 4.98 1 6 C0.34 6 -0.32 6 -1 6 C-1 5.34 -1 4.68 -1 4 C-2.65 4 -4.3 4 -6 4 C-6 3.34 -6 2.68 -6 2 C-3 0 -3 0 0 0 Z " fill="#F01400" transform="translate(323,291)"/>
<path d="M0 0 C0.99 0.66 1.98 1.32 3 2 C2.34 2 1.68 2 1 2 C1 2.66 1 3.32 1 4 C1.99 4.33 2.98 4.66 4 5 C4 5.66 4 6.32 4 7 C2.02 7.33 0.04 7.66 -2 8 C-1.34 7.67 -0.68 7.34 0 7 C0 6.01 0 5.02 0 4 C-0.99 4 -1.98 4 -3 4 C-3 3.34 -3 2.68 -3 2 C-2.34 2 -1.68 2 -1 2 C-0.67 1.34 -0.34 0.68 0 0 Z " fill="#F01200" transform="translate(337,214)"/>
<path d="M0 0 C0.66 -0.33 1.32 -0.66 2 -1 C2 0.32 2 1.64 2 3 C-0.60582371 3.93065133 -1.64198224 4.14917407 -4.25 3.0625 C-4.8275 2.711875 -5.405 2.36125 -6 2 C-6 1.34 -6 0.68 -6 0 C-3.4791665 -1.26041675 -2.64903564 -0.66225891 0 0 Z " fill="#F01400" transform="translate(538,209)"/>
<path d="M0 0 C1.3950848 2.29778673 2.07438619 3.4792967 1.6875 6.1875 C1 8 1 8 0 9 C-0.99 9.33 -1.98 9.66 -3 10 C-3.33 8.68 -3.66 7.36 -4 6 C-3.34 6 -2.68 6 -2 6 C-1.7834375 5.071875 -1.7834375 5.071875 -1.5625 4.125 C-1 2 -1 2 0 0 Z " fill="#F01200" transform="translate(400,182)"/>
<path d="M0 0 C0.99 0.33 1.98 0.66 3 1 C2.67 1.66 2.34 2.32 2 3 C2.99 3 3.98 3 5 3 C5 3.66 5 4.32 5 5 C5.99 5 6.98 5 8 5 C8 5.66 8 6.32 8 7 C6.02 7.33 4.04 7.66 2 8 C0.74335022 5.09399739 0 3.20395416 0 0 Z " fill="#F01100" transform="translate(252,76)"/>
<path d="M0 0 C1.32 0 2.64 0 4 0 C4 1.32 4 2.64 4 4 C1.36 4.33 -1.28 4.66 -4 5 C-2.25 2.5 -2.25 2.5 0 0 Z " fill="#F11700" transform="translate(260,433)"/>
<path d="M0 0 C1.32 0.66 2.64 1.32 4 2 C3.34 3.98 2.68 5.96 2 8 C0.68 6.68 -0.64 5.36 -2 4 C-1.34 2.68 -0.68 1.36 0 0 Z " fill="#F01100" transform="translate(240,414)"/>
<path d="M0 0 C2.475 0.99 2.475 0.99 5 2 C5 2.99 5 3.98 5 5 C4.01 5.495 4.01 5.495 3 6 C2.67 6.66 2.34 7.32 2 8 C0.68 7.34 -0.64 6.68 -2 6 C-1.01 5.67 -0.02 5.34 1 5 C0.67 3.35 0.34 1.7 0 0 Z " fill="#F01300" transform="translate(538,200)"/>
<path d="M0 0 C0.66 0.33 1.32 0.66 2 1 C2 2.65 2 4.3 2 6 C3.32 6 4.64 6 6 6 C6 6.66 6 7.32 6 8 C4.68 8.33 3.36 8.66 2 9 C0.4375 6.1875 0.4375 6.1875 -1 3 C-0.67 2.01 -0.34 1.02 0 0 Z " fill="#ED0400" transform="translate(558,90)"/>
<path d="M0 0 C1.32 0.66 2.64 1.32 4 2 C4 2.66 4 3.32 4 4 C3.34 4 2.68 4 2 4 C2 4.66 2 5.32 2 6 C0.68 6 -0.64 6 -2 6 C-2.33 4.68 -2.66 3.36 -3 2 C-2.01 2 -1.02 2 0 2 C0 1.34 0 0.68 0 0 Z " fill="#ED0400" transform="translate(234,80)"/>
<path d="M0 0 C1.65 0 3.3 0 5 0 C4.814375 0.598125 4.62875 1.19625 4.4375 1.8125 C3.77906313 4.16408762 3.77906313 4.16408762 5 7 C4.01 7.33 3.02 7.66 2 8 C0.74335022 5.09399739 0 3.20395416 0 0 Z " fill="#EC0100" transform="translate(587,70)"/>
<path d="M0 0 C0.99 0 1.98 0 3 0 C2.34 3.63 1.68 7.26 1 11 C-1.26609984 6.46780033 -0.92735976 4.82227075 0 0 Z " fill="#F11600" transform="translate(357,349)"/>
<path d="M0 0 C1.4540625 0.0309375 1.4540625 0.0309375 2.9375 0.0625 C2.9375 1.3825 2.9375 2.7025 2.9375 4.0625 C0.5625 4.25 0.5625 4.25 -2.0625 4.0625 C-2.7225 3.0725 -3.3825 2.0825 -4.0625 1.0625 C-3.0625 0.0625 -3.0625 0.0625 0 0 Z " fill="#ED0200" transform="translate(240.0625,345.9375)"/>
<path d="M0 0 C0.66 0.66 1.32 1.32 2 2 C1.67 2.99 1.34 3.98 1 5 C-1.0625 5.6875 -1.0625 5.6875 -3 6 C-3.66 4.68 -4.32 3.36 -5 2 C-3.35 1.34 -1.7 0.68 0 0 Z " fill="#EF0D00" transform="translate(251,336)"/>
<path d="M0 0 C0.66 0.33 1.32 0.66 2 1 C2.40729228 3.32156597 2.74438677 5.6568787 3 8 C2.01 8 1.02 8 0 8 C-0.33 7.34 -0.66 6.68 -1 6 C-1.66 5.67 -2.32 5.34 -3 5 C-2.01 3.35 -1.02 1.7 0 0 Z " fill="#F01400" transform="translate(495,321)"/>
<path d="M0 0 C0.99 0.33 1.98 0.66 3 1 C3.33 3.97 3.66 6.94 4 10 C3.01 10.495 3.01 10.495 2 11 C1.01 9.02 0.02 7.04 -1 5 C-0.34 5 0.32 5 1 5 C0.67 3.35 0.34 1.7 0 0 Z " fill="#ED0200" transform="translate(368,247)"/>
<path d="M0 0 C0.66 0.33 1.32 0.66 2 1 C1.67 1.66 1.34 2.32 1 3 C1.66 3.33 2.32 3.66 3 4 C2.67 4.66 2.34 5.32 2 6 C1.01 6 0.02 6 -1 6 C-1.33 5.34 -1.66 4.68 -2 4 C-2.99 4.495 -2.99 4.495 -4 5 C-4.66 4.34 -5.32 3.68 -6 3 C-4.125 1.9375 -4.125 1.9375 -2 1 C-1.34 1.33 -0.68 1.66 0 2 C0 1.34 0 0.68 0 0 Z " fill="#ED0200" transform="translate(526,225)"/>
<path d="M0 0 C1.4540625 0.0309375 1.4540625 0.0309375 2.9375 0.0625 C3.5975 1.3825 4.2575 2.7025 4.9375 4.0625 C2.6275 4.0625 0.3175 4.0625 -2.0625 4.0625 C-2.0625 3.4025 -2.0625 2.7425 -2.0625 2.0625 C-2.7225 1.7325 -3.3825 1.4025 -4.0625 1.0625 C-3.0625 0.0625 -3.0625 0.0625 0 0 Z " fill="#ED0200" transform="translate(504.0625,159.9375)"/>
<path d="M0 0 C1.98 0.495 1.98 0.495 4 1 C4 2.32 4 3.64 4 5 C4.66 5.33 5.32 5.66 6 6 C3.69 6 1.38 6 -1 6 C-0.67 4.02 -0.34 2.04 0 0 Z " fill="#F11700" transform="translate(560,69)"/>
<path d="M0 0 C-0.66 1.65 -1.32 3.3 -2 5 C-2.66 4.67 -3.32 4.34 -4 4 C-4 3.34 -4 2.68 -4 2 C-4.99 2.33 -5.98 2.66 -7 3 C-7 2.01 -7 1.02 -7 0 C-4.3333581 -1.33332095 -2.83319697 -0.67102033 0 0 Z " fill="#F01400" transform="translate(564,408)"/>
<path d="M0 0 C2.5 1.25 2.5 1.25 5 3 C5 4.32 5 5.64 5 7 C2.37812506 5.95125002 1.20628639 5.35068687 -0.25 2.875 C-0.4975 2.25625 -0.745 1.6375 -1 1 C-0.67 0.67 -0.34 0.34 0 0 Z " fill="#F01100" transform="translate(365,213)"/>
<path d="M0 0 C0.33 0.66 0.66 1.32 1 2 C1.99 2 2.98 2 4 2 C4 2.99 4 3.98 4 5 C3.34 5 2.68 5 2 5 C2 5.99 2 6.98 2 8 C1.01 8 0.02 8 -1 8 C-0.67 5.36 -0.34 2.72 0 0 Z " fill="#ED0300" transform="translate(546,212)"/>
<path d="M0 0 C2.475 0.99 2.475 0.99 5 2 C4.67 2.99 4.34 3.98 4 5 C2.824375 4.9690625 2.824375 4.9690625 1.625 4.9375 C-0.98114961 4.81315937 -0.98114961 4.81315937 -3 6 C-2 4 -1 2 0 0 Z " fill="#F01000" transform="translate(272,157)"/>
<path d="M0 0 C0.66 0.33 1.32 0.66 2 1 C2 1.66 2 2.32 2 3 C2.99 3.33 3.98 3.66 5 4 C2.69 4.66 0.38 5.32 -2 6 C-2.33 5.34 -2.66 4.68 -3 4 C-2.67 3.01 -2.34 2.02 -2 1 C-1.34 0.67 -0.68 0.34 0 0 Z " fill="#F11800" transform="translate(249,126)"/>
<path d="M0 0 C0.99 1.32 1.98 2.64 3 4 C1.6875 5.5 1.6875 5.5 0 7 C-0.99 7 -1.98 7 -3 7 C-3 5.35 -3 3.7 -3 2 C-2.01 2 -1.02 2 0 2 C0 1.34 0 0.68 0 0 Z " fill="#ED0200" transform="translate(213,96)"/>
<path d="M0 0 C0 1.65 0 3.3 0 5 C-1.98 5 -3.96 5 -6 5 C-6 3.68 -6 2.36 -6 1 C-3.92446352 0.4465236 -2.15634036 0 0 0 Z " fill="#EC0100" transform="translate(283,65)"/>
<path d="M0 0 C1.32 0 2.64 0 4 0 C4.33 0.99 4.66 1.98 5 3 C5.99 3.33 6.98 3.66 8 4 C8 4.66 8 5.32 8 6 C5.03 5.505 5.03 5.505 2 5 C2 4.01 2 3.02 2 2 C1.34 2 0.68 2 0 2 C0 1.34 0 0.68 0 0 Z " fill="#EC0100" transform="translate(295,355)"/>
<path d="M0 0 C2.97 0.495 2.97 0.495 6 1 C6.33 2.32 6.66 3.64 7 5 C5.02 5.99 5.02 5.99 3 7 C3 6.01 3 5.02 3 4 C1.54166642 2.37485532 1.54166642 2.37485532 0 1 C0 0.67 0 0.34 0 0 Z " fill="#EC0100" transform="translate(307,246)"/>
<path d="M0 0 C-0.66 1.32 -1.32 2.64 -2 4 C-3.32 3.34 -4.64 2.68 -6 2 C-6 2.66 -6 3.32 -6 4 C-6.66 4 -7.32 4 -8 4 C-7.6875 2.0625 -7.6875 2.0625 -7 0 C-3.86650268 -1.04449911 -3.01031744 -0.93423645 0 0 Z " fill="#F01100" transform="translate(571,193)"/>
<path d="M0 0 C0.66 0.33 1.32 0.66 2 1 C1.67 1.66 1.34 2.32 1 3 C1.99 3 2.98 3 4 3 C3.67 4.65 3.34 6.3 3 8 C1.68 7.34 0.36 6.68 -1 6 C-0.67 4.02 -0.34 2.04 0 0 Z " fill="#F01300" transform="translate(585,56)"/>
<path d="M0 0 C0.99 0 1.98 0 3 0 C3 1.98 3 3.96 3 6 C2.01 6.33 1.02 6.66 0 7 C-1.125 2.25 -1.125 2.25 0 0 Z " fill="#F01200" transform="translate(555,374)"/>
<path d="M0 0 C1.98 0 3.96 0 6 0 C6 1.32 6 2.64 6 4 C4.35 4 2.7 4 1 4 C0.67 2.68 0.34 1.36 0 0 Z " fill="#ED0200" transform="translate(223,358)"/>
<path d="M0 0 C0 0.99 0 1.98 0 3 C-0.66 3 -1.32 3 -2 3 C-2.33 3.66 -2.66 4.32 -3 5 C-3 4.01 -3 3.02 -3 2 C-5.97 1.505 -5.97 1.505 -9 1 C-9 0.67 -9 0.34 -9 0 C-3.375 -1.125 -3.375 -1.125 0 0 Z " fill="#F01200" transform="translate(523,335)"/>
<path d="M0 0 C1.98 0 3.96 0 6 0 C6.33 0.99 6.66 1.98 7 3 C6.34 3.66 5.68 4.32 5 5 C4.67 4.34 4.34 3.68 4 3 C3.34 3 2.68 3 2 3 C2 3.66 2 4.32 2 5 C1.34 5 0.68 5 0 5 C0 3.35 0 1.7 0 0 Z " fill="#ED0300" transform="translate(289,325)"/>
<path d="M0 0 C0.33 0.66 0.66 1.32 1 2 C1.33 1.34 1.66 0.68 2 0 C3.32 0.33 4.64 0.66 6 1 C5.01 2.485 5.01 2.485 4 4 C3.34 4 2.68 4 2 4 C2 4.66 2 5.32 2 6 C1.34 6 0.68 6 0 6 C0 4.02 0 2.04 0 0 Z " fill="#F01300" transform="translate(549,285)"/>
<path d="M0 0 C-0.66 1.98 -1.32 3.96 -2 6 C-2.99 6 -3.98 6 -5 6 C-5.66 4.68 -6.32 3.36 -7 2 C-2.25 0 -2.25 0 0 0 Z " fill="#F01100" transform="translate(508,208)"/>
<path d="M0 0 C2.475 0.99 2.475 0.99 5 2 C4.67 2.99 4.34 3.98 4 5 C1.9375 5.6875 1.9375 5.6875 0 6 C0 4.02 0 2.04 0 0 Z " fill="#ED0300" transform="translate(491,174)"/>
<path d="M0 0 C1.98 0.66 3.96 1.32 6 2 C5.01 2.33 4.02 2.66 3 3 C2.26676204 5.01508358 2.26676204 5.01508358 2 7 C0.4375 4.625 0.4375 4.625 -1 2 C-0.67 1.34 -0.34 0.68 0 0 Z " fill="#EC0100" transform="translate(204,115)"/>
<path d="M0 0 C0.66 0.33 1.32 0.66 2 1 C0.515 2.485 0.515 2.485 -1 4 C-1.66 3.67 -2.32 3.34 -3 3 C-2.67 3.99 -2.34 4.98 -2 6 C-2.99 6 -3.98 6 -5 6 C-5.66 5.34 -6.32 4.68 -7 4 C-6.34 4 -5.68 4 -5 4 C-5 3.34 -5 2.68 -5 2 C-2.625 0.9375 -2.625 0.9375 0 0 Z " fill="#F01200" transform="translate(279,112)"/>
<path d="M0 0 C1.65 0 3.3 0 5 0 C4.34 1.98 3.68 3.96 3 6 C2.01 5.67 1.02 5.34 0 5 C0 3.35 0 1.7 0 0 Z " fill="#F01300" transform="translate(305,406)"/>
<path d="M0 0 C1.98 0 3.96 0 6 0 C6 0.99 6 1.98 6 3 C4.02 3.99 4.02 3.99 2 5 C2 4.34 2 3.68 2 3 C1.01 2.67 0.02 2.34 -1 2 C-0.67 1.34 -0.34 0.68 0 0 Z " fill="#F01200" transform="translate(505,227)"/>
<path d="M0 0 C2.475 0.99 2.475 0.99 5 2 C4.67 2.99 4.34 3.98 4 5 C1.69 4.34 -0.62 3.68 -3 3 C-2.01 2.01 -1.02 1.02 0 0 Z " fill="#EC0100" transform="translate(591,186)"/>
<path d="M0 0 C-1.125 1.5 -1.125 1.5 -3 3 C-6.1875 3.1875 -6.1875 3.1875 -9 3 C-8.67 2.01 -8.34 1.02 -8 0 C-5.13822943 -1.43088528 -3.06624227 -0.59991697 0 0 Z " fill="#ED0200" transform="translate(586,111)"/>
<path d="M0 0 C2 3 2 3 2 5 C0.02 5.66 -1.96 6.32 -4 7 C-3.6875 4.625 -3.6875 4.625 -3 2 C-2.01 1.34 -1.02 0.68 0 0 Z " fill="#F01100" transform="translate(273,415)"/>
<path d="M0 0 C2.475 0.495 2.475 0.495 5 1 C5.33 1.99 5.66 2.98 6 4 C2.125 3.125 2.125 3.125 1 2 C0.67 2.99 0.34 3.98 0 5 C0 3.35 0 1.7 0 0 Z " fill="#ED0400" transform="translate(624,388)"/>
<path d="M0 0 C0.99 0.66 1.98 1.32 3 2 C3 2.66 3 3.32 3 4 C0.69 4.66 -1.62 5.32 -4 6 C-4 5.01 -4 4.02 -4 3 C-2 1.3125 -2 1.3125 0 0 Z " fill="#ED0300" transform="translate(253,368)"/>
<path d="M0 0 C1.32 0 2.64 0 4 0 C4.33 0.99 4.66 1.98 5 3 C3.02 3.66 1.04 4.32 -1 5 C-0.67 3.35 -0.34 1.7 0 0 Z " fill="#F01300" transform="translate(351,315)"/>
<path d="M0 0 C0.99 0.33 1.98 0.66 3 1 C3 1.99 3 2.98 3 4 C2.34 4 1.68 4 1 4 C0.67 4.99 0.34 5.98 0 7 C-0.66 5.02 -1.32 3.04 -2 1 C-1.34 0.67 -0.68 0.34 0 0 Z " fill="#ED0300" transform="translate(657,119)"/>
<path d="M0 0 C0.33 0.99 0.66 1.98 1 3 C-0.98 3.66 -2.96 4.32 -5 5 C-5 4.01 -5 3.02 -5 2 C-2 0 -2 0 0 0 Z " fill="#F01100" transform="translate(274,407)"/>
<path d="M0 0 C1.65 0 3.3 0 5 0 C5 1.32 5 2.64 5 4 C3.02 4 1.04 4 -1 4 C-0.34 3.67 0.32 3.34 1 3 C0.67 2.01 0.34 1.02 0 0 Z " fill="#F01500" transform="translate(549,399)"/>
<path d="M0 0 C0.99 0.33 1.98 0.66 3 1 C3 2.32 3 3.64 3 5 C1.35 5.33 -0.3 5.66 -2 6 C-1.34 4.02 -0.68 2.04 0 0 Z " fill="#F01200" transform="translate(534,352)"/>
<path d="M0 0 C-0.33 0.99 -0.66 1.98 -1 3 C-3.31 3 -5.62 3 -8 3 C-8 2.34 -8 1.68 -8 1 C-5.29120665 -0.35439668 -2.99066732 -0.06501451 0 0 Z " fill="#F01400" transform="translate(533,353)"/>
<path d="M0 0 C0.66 0 1.32 0 2 0 C2.33 1.98 2.66 3.96 3 6 C1.35 5.67 -0.3 5.34 -2 5 C-2 4.34 -2 3.68 -2 3 C-1.34 3 -0.68 3 0 3 C0 2.01 0 1.02 0 0 Z " fill="#F01400" transform="translate(567,348)"/>
<path d="M0 0 C1.98 0 3.96 0 6 0 C6.33 0.66 6.66 1.32 7 2 C6.34 2.66 5.68 3.32 5 4 C2.525 3.01 2.525 3.01 0 2 C0 1.34 0 0.68 0 0 Z " fill="#F01100" transform="translate(472,180)"/>
<path d="M0 0 C2.475 0.495 2.475 0.495 5 1 C5.33 2.32 5.66 3.64 6 5 C3.03 4.505 3.03 4.505 0 4 C0 2.68 0 1.36 0 0 Z " fill="#F11600" transform="translate(662,147)"/>
<path d="M0 0 C1.98 0.495 1.98 0.495 4 1 C3.67 2.65 3.34 4.3 3 6 C1.68 5.01 0.36 4.02 -1 3 C-0.67 2.01 -0.34 1.02 0 0 Z " fill="#ED0400" transform="translate(646,91)"/>
<path d="M0 0 C0.33 0.66 0.66 1.32 1 2 C1.66 2 2.32 2 3 2 C3 2.99 3 3.98 3 5 C0.5625 4.625 0.5625 4.625 -2 4 C-2.33 3.34 -2.66 2.68 -3 2 C-2.01 1.34 -1.02 0.68 0 0 Z " fill="#ED0200" transform="translate(583,399)"/>
<path d="M0 0 C1.32 0.66 2.64 1.32 4 2 C3.67 2.99 3.34 3.98 3 5 C1.02 4.34 -0.96 3.68 -3 3 C-2.01 2.01 -1.02 1.02 0 0 Z " fill="#ED0200" transform="translate(593,349)"/>
<path d="M0 0 C0.66 0 1.32 0 2 0 C2.33 1.98 2.66 3.96 3 6 C1.0625 5.625 1.0625 5.625 -1 5 C-1.33 4.34 -1.66 3.68 -2 3 C-1.34 2.01 -0.68 1.02 0 0 Z " fill="#F01200" transform="translate(347,290)"/>
<path d="M0 0 C0.33 0.66 0.66 1.32 1 2 C1.99 2.33 2.98 2.66 4 3 C3.67 3.66 3.34 4.32 3 5 C1.68 5 0.36 5 -1 5 C-1.33 4.01 -1.66 3.02 -2 2 C-1.34 1.34 -0.68 0.68 0 0 Z " fill="#EC0000" transform="translate(568,257)"/>
<path d="M0 0 C2.31 0 4.62 0 7 0 C6.34 1.32 5.68 2.64 5 4 C3.0625 3.6875 3.0625 3.6875 1 3 C0.67 2.01 0.34 1.02 0 0 Z " fill="#F01400" transform="translate(525,212)"/>
<path d="M0 0 C0.99 0.99 1.98 1.98 3 3 C2.67 3.99 2.34 4.98 2 6 C2 5.34 2 4.68 2 4 C1.34 4 0.68 4 0 4 C0 4.66 0 5.32 0 6 C-0.99 6 -1.98 6 -3 6 C-3 5.34 -3 4.68 -3 4 C-2.34 4 -1.68 4 -1 4 C-0.67 2.68 -0.34 1.36 0 0 Z " fill="#ED0200" transform="translate(585,176)"/>
<path d="M0 0 C0.99 0.33 1.98 0.66 3 1 C2.34 2.98 1.68 4.96 1 7 C0.01 6.67 -0.98 6.34 -2 6 C-2 5.34 -2 4.68 -2 4 C-1.34 4 -0.68 4 0 4 C0 2.68 0 1.36 0 0 Z " fill="#ED0200" transform="translate(386,161)"/>
<path d="M0 0 C1.32 0.66 2.64 1.32 4 2 C4 2.99 4 3.98 4 5 C2.68 4.67 1.36 4.34 0 4 C0 2.68 0 1.36 0 0 Z " fill="#EC0100" transform="translate(370,151)"/>
<path d="M0 0 C0.66 0 1.32 0 2 0 C1.67 0.66 1.34 1.32 1 2 C0.67 1.34 0.34 0.68 0 0 Z " fill="#FB4518" transform="translate(4,307)"/>
<path d="M0 0 C0.99 0.495 0.99 0.495 2 1 C1.01 1.495 1.01 1.495 0 2 C0 1.34 0 0.68 0 0 Z " fill="#FB4518" transform="translate(846,301)"/>
<path d="" fill="#FB4518" transform="translate(0,0)"/>
<path d="" fill="#FB4518" transform="translate(0,0)"/>
<path d="" fill="#FB4518" transform="translate(0,0)"/>
<path d="" fill="#FB4518" transform="translate(0,0)"/>
<path d="" fill="#FB4518" transform="translate(0,0)"/>
<path d="" fill="#FB4518" transform="translate(0,0)"/>
<path d="" fill="#FB4518" transform="translate(0,0)"/>
</svg>
